<?xml version="1.0" encoding="utf-8"?>
<!-- Generator: Adobe Illustrator 24.0.2, SVG Export Plug-In . SVG Version: 6.00 Build 0)  -->
<svg version="1.1" id="图层_1" xmlns="http://www.w3.org/2000/svg" xmlns:xlink="http://www.w3.org/1999/xlink" x="0px" y="0px"
	 viewBox="0 0 595.28 841.89" style="enable-background:new 0 0 595.28 841.89;" xml:space="preserve">
<style type="text/css">
	.st0{fill:#FFFFFF;}
	.st1{fill:#060303;}
	.st2{fill:#070405;}
	.st3{fill:#0B0A0B;}
	.st4{fill:#0A0A0B;}
	.st5{fill:#0E0F0F;}
	.st6{fill:#0F0F0F;}
	.st7{fill:#0D0E0E;}
	.st8{fill:#F2F1F1;}
	.st9{fill:#EFEEEE;}
	.st10{fill:#EEEDED;}
	.st11{fill:#EBEAEA;}
	.st12{fill:#111212;}
	.st13{fill:#0F1010;}
	.st14{fill:#FBFBFA;}
	.st15{fill:#FBFBFB;}
	.st16{fill:#2D2D2C;}
	.st17{fill:#1C1D1D;}
	.st18{fill:#1B1C1C;}
	.st19{fill:#0B0B0C;}
	.st20{fill:#FDFDFD;}
	.st21{fill:#070505;}
	.st22{fill:#040000;}
</style>
<g>
	<path class="st0" d="M443.72,423.18c8.05,0,12.47,3.88,12.49,11.08c0.13,52.14,0.25,104.28,0.36,156.42
		c0.02,7.23-4.5,11.2-12.64,11.21c-10.24,0.01-20.49-0.01-30.73,0.06c-1.75,0.01-2.52-0.24-2.86-2.03
		c-2.23-11.67-4.54-23.34-8.38-34.7c-2.02-5.98-2.61-6.26-9.67-6.63c-10.93-0.57-21.86-0.86-32.8-0.94
		c-27.4-0.2-54.81-0.18-82.21,0.19c-17.85,0.24-35.71,0.46-53.55,1.21c-3.37,0.14-5.19,1.3-6.29,4.12
		c-3.86,9.84-5.89,20.05-8.24,30.2c-0.58,2.5-1.14,5.01-1.56,7.54c-0.18,1.12-0.75,1.38-1.9,1.38c-10.51-0.02-21.02,0.11-31.52-0.06
		c-5.79-0.09-10.18-4.49-10.25-9.94c-0.11-8.46-0.06-16.91-0.08-25.37c-0.11-43.84-0.21-87.67-0.33-131.51
		c-0.01-2.12,0.13-4.2,1.21-6.12c2.2-3.94,5.78-5.72,10.77-5.72c41.41,0,82.83-0.06,124.24-0.09c3.41,0,6.83,0,10.24,0
		C310.03,423.38,399.16,423.19,443.72,423.18z"/>
	<path class="st1" d="M458.06,541.47c0-1.03-0.08-1.76-0.08-2.59c-0.02-13-0.01-25.99-0.01-38.98c0-9.93,0-19.85,0-29.77
		c0-12.48,0-24.96,0-37.44c-0.01-6.23-3.34-9.8-10.24-10.97c-15.59,0-31.17,0-46.76,0c-1.41,0-1.92,0-2.85,0.02
		c-14.15,0.02-28.25,0.24-42.39,0.24c-15.57,0-31.15,0-46.72,0c-12.96,0-25.93,0-38.89,0c-15.05,0-30.1,0-45.15,0
		c-16.87,0-33.75,0-50.63,0c-4.81-0.03-7.54,1.31-10.21,4.19c-1.48,1.6-2.1,3.64-2.2,5.35c0,17.7,0,35.39,0,53.08
		c0,1.42,0,1.83,0,2.66c0.02,15.32,0.27,30.48,0.27,45.8c0,12.41,0,24.81,0,37.21c0,7.75,0,15.51,0,23.26
		c-0.15,4.31,2.04,7.43,6.24,9.48c2.15,1.05,4.55,1,6.91,1c90.21-0.01,180.43,0.06,270.64-0.23c0.17,0,0.35-0.01,0.52,0
		c3.28,0.17,5.87-1.04,8.23-2.99c2.27-1.87,3.08-4.23,3.5-6.79C458.24,576.46,458.06,559.01,458.06,541.47z"/>
	<path class="st0" d="M406.44,601.96c-32.56-0.08-65.12-0.05-97.68-0.05c0,0.13,0,0.23,0,0.34c-31.95,0-63.89,0-95.84,0
		c-3.89,0-3.9-0.01-3.21-3.39c2.14-10.43,4.36-20.84,7.73-31.03c2.34-7.08,2.39-7.15,10.71-7.43c47.85-1.62,95.72-1.66,143.59-1.12
		c7.95,0.09,15.92,0.27,23.85,1.03c2.22,0.21,3.17,1.13,3.86,2.81c2.57,6.27,4.07,12.79,5.62,19.29c1.36,5.68,2.4,11.41,3.69,17.1
		C409.18,601.38,408.81,601.97,406.44,601.96z"/>
	<path class="st2" d="M309.59,551.06c-41.23,0-82.47,0-123.7,0c-5.91,0-7.13-1.04-7.13-6.18c-0.03-34.06-0.07-68.12-0.1-102.18
		c0-4.46,1.29-5.59,6.37-5.6c82.56-0.12,165.11-0.25,247.67-0.37c0.61,0,1.23,0,1.84,0.01c3.87,0.05,5.43,1.37,5.45,4.77
		c0.06,9.85,0.09,19.71,0.12,29.56c0.07,24.51,0.13,49.03,0.2,73.54c0.01,4.92-1.24,6.06-6.74,6.06
		C392.24,550.68,309.59,550.94,309.59,551.06z"/>
	<path class="st3" d="M180.54,585.28c-0.08-6.14,5.18-11.25,11.59-11.26c6.31-0.02,11.65,4.92,11.78,10.9
		c0.14,6.11-5.06,11.25-11.5,11.37C185.97,596.4,180.62,591.44,180.54,585.28z"/>
	<path class="st4" d="M425.97,595.91c-6.54,0.01-11.77-4.89-11.81-11.05c-0.04-6.1,5.27-11.12,11.75-11.12
		c6.44,0,11.73,5.07,11.68,11.19C437.54,590.96,432.32,595.9,425.97,595.91z"/>
	<path class="st5" d="M441.94,593.84c0.01-3.01,2.62-5.47,5.78-5.44c3.13,0.03,5.8,2.6,5.73,5.52c-0.07,2.91-2.61,5.27-5.68,5.29
		C444.51,599.24,441.93,596.85,441.94,593.84z"/>
	<path class="st6" d="M178.83,594.82c0.04,3.07-2.43,5.51-5.62,5.55c-3.14,0.03-5.82-2.48-5.82-5.45c0-2.96,2.69-5.46,5.84-5.43
		C176.29,589.52,178.79,591.89,178.83,594.82z"/>
	<path class="st6" d="M180.35,431.49c0.01,2.98-2.66,5.49-5.79,5.44c-3.02-0.05-5.65-2.5-5.72-5.34c-0.07-2.91,2.6-5.49,5.73-5.54
		C177.7,426,180.34,428.48,180.35,431.49z"/>
	<path class="st7" d="M440.9,431.08c0.01-3.01,2.64-5.42,5.85-5.36c3.09,0.06,5.63,2.44,5.67,5.32c0.04,2.92-2.64,5.49-5.76,5.52
		C443.56,436.59,440.88,434.04,440.9,431.08z"/>
	<path class="st8" d="M447.79,590.26c1.96,0.06,3.6,1.72,3.58,3.6c-0.02,2.02-1.84,3.64-3.93,3.51c-2.05-0.13-3.48-1.68-3.39-3.7
		C444.13,591.69,445.77,590.19,447.79,590.26z"/>
	<path class="st9" d="M176.75,594.85c0.05,1.88-1.59,3.64-3.45,3.72c-1.95,0.08-3.89-1.74-3.88-3.65c0.01-1.85,1.75-3.56,3.67-3.58
		C175.04,591.31,176.7,592.9,176.75,594.85z"/>
	<path class="st10" d="M178.25,431.35c0.05,2.02-1.68,3.81-3.66,3.78c-1.88-0.02-3.66-1.77-3.68-3.62
		c-0.02-1.87,1.71-3.61,3.61-3.64C176.5,427.84,178.19,429.42,178.25,431.35z"/>
	<path class="st11" d="M450.34,431.1c0.01,1.85-1.72,3.59-3.62,3.63c-1.94,0.04-3.68-1.58-3.75-3.49c-0.08-2.05,1.65-3.78,3.71-3.72
		C448.68,427.57,450.33,429.19,450.34,431.1z"/>
	<path class="st12" d="M378.83,585.96c-4.19-0.02-7.43,3.01-7.42,6.94s3.34,7.1,7.39,7.04c4.01-0.06,7.38-3.33,7.36-7.15
		C386.14,589.09,382.79,585.98,378.83,585.96z M378.76,598.48c-3.14,0.05-5.67-2.39-5.69-5.52c-0.02-3.15,2.41-5.55,5.62-5.55
		c3.21,0,5.79,2.42,5.82,5.48C384.54,595.85,381.89,598.42,378.76,598.48z"/>
	<path class="st5" d="M235.46,586.1c-3.98,0.07-7.35,3.38-7.26,7.13c0.09,3.84,3.46,6.9,7.53,6.85c4.07-0.06,7.27-3.2,7.21-7.1
		C242.89,589.14,239.5,586.02,235.46,586.1z M235.54,598.64c-3.15-0.03-5.74-2.57-5.72-5.58c0.02-2.98,2.72-5.52,5.84-5.51
		c3.16,0.01,5.64,2.48,5.64,5.6C241.3,596.23,238.74,598.67,235.54,598.64z"/>
	<path class="st13" d="M349.8,580.52c-4.04,0-7.37,3.21-7.33,7.08c0.04,3.94,3.31,6.98,7.46,6.92c3.99-0.05,7.21-3.12,7.25-6.9
		C357.22,583.81,353.81,580.53,349.8,580.52z M349.82,593.07c-3.24,0.01-5.66-2.33-5.67-5.5c-0.01-3.11,2.47-5.58,5.63-5.59
		c3.08-0.01,5.75,2.56,5.76,5.56C355.57,590.58,353,593.06,349.82,593.07z"/>
	<path class="st6" d="M267.75,580.99c-3.95-0.16-7.54,3.07-7.6,6.83c-0.06,3.91,3.08,7.06,7.15,7.16c4.15,0.1,7.48-2.86,7.59-6.75
		C275,584.42,271.78,581.15,267.75,580.99z M267.4,593.54c-3.2-0.07-5.7-2.59-5.61-5.63c0.09-3.07,2.72-5.52,5.85-5.46
		c3.1,0.06,5.66,2.66,5.61,5.68C273.2,591.19,270.58,593.61,267.4,593.54z"/>
	<path class="st0" d="M438.22,442.8c0-4.04-0.34-4.34-4.95-4.33c-82.81,0.11-165.63,0.23-248.44,0.35c-3.84,0-4.42,0.51-4.41,3.89
		c0.09,34.21,0.18,68.42,0.28,102.63c0.01,3.77,0.28,3.99,4.47,3.99c41.41,0,82.81,0,124.22,0c0-0.11,82.81-0.33,124.21-0.32
		c4.44,0,4.72-0.25,4.72-4.27C438.3,510.76,438.26,476.78,438.22,442.8z M386.54,525.68c-12.16-0.32-24.34-0.08-36.51-0.05
		c-23.97,0.06-47.95,0.14-71.92,0.2c-15.93,0.04-31.87,0.07-47.8,0.08c-6.42,0.01-10.14-3.23-10.17-8.89
		c-0.05-10.09-0.07-20.18-0.06-30.26c0.01-6,3.6-9.15,10.36-9.15c26.09,0,52.19,0,78.28,0c-0.01-0.05,51.83-0.14,77.75-0.14
		c7.05,0,10.37,2.93,10.4,9.26c0.04,9.85-0.1,19.71,0.14,29.56C397.13,521.34,393.4,525.86,386.54,525.68z"/>
	<path class="st14" d="M192.41,575.81c-5.44-0.07-9.86,4.01-9.95,9.17c-0.09,5.18,4.17,9.43,9.53,9.52
		c5.47,0.09,9.82-3.93,9.89-9.15C201.96,580.11,197.75,575.88,192.41,575.81z M191.85,591.52c-3.48-0.05-6.65-2.87-6.71-5.98
		c-0.06-3.2,3.2-6.12,6.8-6.09c3.52,0.03,6.72,2.87,6.72,5.94C198.65,588.64,195.4,591.57,191.85,591.52z"/>
	<path class="st15" d="M425.81,575.42c-5.3,0.03-9.69,4.33-9.64,9.46c0.05,5.24,4.32,9.31,9.77,9.31c5.35,0,9.69-4.23,9.66-9.41
		C435.57,579.62,431.16,575.4,425.81,575.42z M425.43,591.18c-3.53-0.09-6.61-2.92-6.58-6.05c0.03-3.24,3.31-6.14,6.85-6.05
		c3.52,0.09,6.63,2.93,6.62,6.04C432.3,588.37,428.99,591.28,425.43,591.18z"/>
	<path class="st16" d="M450.31,593.91c0.08,0.46-0.12,0.69-0.49,0.77c-0.34,0.07-0.69,0.08-1.03,0.13
		c-1.26,0.18,0.43,2.15-1.39,1.87c-1.15-0.18,0.02-1.59-1.17-2.05c-1.12-0.43-1.1-0.73,0.2-1.12c1.42-0.43-0.16-2.33,1.38-2.22
		c1.24,0.09-0.28,1.78,0.98,2.23C449.28,593.7,450.03,593.29,450.31,593.91z"/>
	<path class="st17" d="M173.18,592.1c0.17,1.84,0.68,2.97,2.94,2.88c-0.81,1.12-3.14,0.65-2.6,2.51c0.08,0.27-0.79,0.32-0.8,0.23
		c-0.11-1.32-1.02-1.96-2.3-2.35c-0.04-0.01,0-0.4,0.03-0.4C172.34,594.83,172.66,593.45,173.18,592.1z"/>
	<path class="st18" d="M174.57,428.53c0.84,1.17,0.13,3.17,2.47,2.96c0.03,0,0.1,0.39,0.15,0.59c-1.49,0.16-2.2,0.99-2.42,2.23
		c-0.24-0.06-0.55-0.05-0.7-0.19c-0.14-0.14-0.24-0.48-0.15-0.62c1.09-1.69-3.57-1.19-1.5-2.05
		C174.24,430.69,173.6,429.6,174.57,428.53z"/>
	<path class="st19" d="M446.77,428.24c0.88,1.16-0.22,3.16,2.27,2.79c0.06-0.01,0.2,0.36,0.31,0.55c-1.43,0.29-2.11,1.24-2.6,2.35
		c-0.21-0.11-0.59-0.22-0.59-0.33c0.04-1.07-0.23-1.77-1.71-1.72c-0.42,0.02-0.45-0.87-0.12-0.83
		C446.7,431.37,445.83,429.32,446.77,428.24z"/>
	<path class="st0" d="M285.62,522.39c15.26-11.32,11.62-28.72,1.34-36.35c14.89,0,29.43,0,43.96,0c-10.44,8.42-13.1,25.1,1.77,36.35
		C316.88,522.39,301.29,522.39,285.62,522.39z"/>
	<path class="st20" d="M392.02,503.45c-0.08,12.07-10.14,21.07-22.89,20.71c-9.16-0.26-17.28-6.56-19.85-15.39
		c-2.82-9.68,2.72-20.39,12.48-24.14c12.65-4.87,26.64,1.82,29.7,14.22C391.87,500.43,392.14,502.04,392.02,503.45z"/>
	<path class="st20" d="M245.31,483.15c7.84,0.24,13.86,3.38,18,9.23c5.41,7.64,4.77,17.45-1.44,24.59
		c-7.87,9.05-22.4,9.88-31.54,1.81c-12.28-10.85-7.4-30.23,8.77-34.79C241.11,483.42,243.16,483.07,245.31,483.15z"/>
	<path class="st0" d="M292.89,505.4c-0.3,6.23-4,12.39-12.1,16.2c-0.91,0.43-1.93,0.77-2.94,0.91c-2.51,0.34-3.98-0.82-3.99-3.04
		c-0.03-10.15,0-20.3-0.11-30.44c-0.02-2.24,1.17-2.9,3.43-3.15c3.73-0.41,6.57,0.81,9.08,3.13
		C290.7,493.13,292.94,497.99,292.89,505.4z"/>
	<path class="st0" d="M343.3,504.24c0,4.57,0.03,9.14-0.01,13.71c-0.03,4.07-2.34,5.25-6.39,3.33
		c-14.47-6.85-15.61-26.26-2.06-34.51c2-1.22,4.08-1.34,6.19-0.55c2.12,0.8,2.25,2.54,2.23,4.31c-0.04,4.57-0.01,9.14-0.01,13.71
		C343.27,504.24,343.28,504.24,343.3,504.24z"/>
	<path class="st21" d="M431.51,442.29c0.03-2.02-0.71-2.36-2.8-2.36c-80.17,0.17-160.35,0.3-240.52,0.37
		c-2.21,0-2.55,0.63-2.52,2.36c0.11,8.07,0.09,16.13,0.11,24.2c0.01,3.24,0.01,3.24,3.53,3.24c39.82,0,79.65,0,119.47,0
		c0-0.13,80-0.4,120-0.34c2.1,0.01,2.8-0.32,2.76-2.34C431.39,459.04,431.38,450.67,431.51,442.29z M427.23,468.18
		c-52.01-0.01-104.02,0.05-156.03,0.1c-26.97,0.02-53.94,0.03-80.91,0.13c-2.21,0.01-2.72-0.51-2.68-2.42
		c0.13-7.29,0.12-14.59-0.02-21.88c-0.03-1.77,0.49-2.14,2.43-2.13c39.58,0.06,79.15,0.04,118.73,0.04c0-0.1,78.63-0.29,117.95-0.37
		c2.46-0.01,2.94,0.63,2.91,2.66c-0.11,7.21-0.05,14.43,0.08,21.65C429.72,467.67,429.24,468.19,427.23,468.18z"/>
	<path class="st22" d="M381.25,514.56c-0.38-0.43-0.7-0.79-1.03-1.14c-0.55-0.58-0.95-1.73-2.04-0.56
		c-0.67,0.72-2.81,1.02-1.07,2.56c1.35,1.2,0.77,1.86-0.75,2.42c-4.56,1.71-8.99,1.55-13.32-0.6c-0.81-0.4-1.7-0.8-0.52-1.6
		c2.11-1.43,1.12-2.55-0.43-3.52c-1.73-1.08-1.69,0.88-2.56,1.31c-0.28,0.14-0.5,0.39-0.79,0.63c-1.97-1.96-3.02-4.21-3.84-6.59
		c-0.45-1.32,0.08-1.63,1.46-1.53c1.3,0.09,2.54,0.29,2.48-1.65c-0.05-1.72-0.74-2.23-2.45-1.96c-1.93,0.3-1.96-0.63-1.66-1.86
		c0.53-2.21,1.5-4.24,2.85-6.17c1.18-1.69,2-1.57,2.92,0.1c0.88,1.6,1.89,1.76,3.38,0.42c0.8-0.73,0.86-1.14,0.18-1.89
		c-0.71-0.77-1.27-1.65-1.89-2.48c4.99-2.92,11.36-2.97,16.07-0.23c1.26,0.73,1.67,1.27,0.45,2.44c-0.61,0.59-2.33,1.23-0.82,2.6
		c1.25,1.14,2.24,1.87,3.4-0.04c1.02-1.68,1.72-1.08,2.52,0.26c0.74,1.24,1.37,2.5,1.76,3.84c0.45,1.55,1.45,3.4-2.08,3.06
		c-1.8-0.17-0.85,1.34-1.02,2.1c-0.18,0.79-0.1,1.63,1.26,1.46c2.31-0.29,2.37,0.68,1.74,2.25
		C384.53,510.54,383.48,512.79,381.25,514.56z"/>
	<path class="st22" d="M256.18,514.84c-0.31-0.36-0.53-0.72-0.85-0.95c-0.64-0.46-0.72-2.16-2.2-0.88
		c-0.85,0.74-2.83,1.19-1.02,2.75c1.17,1.01,0.75,1.64-0.63,2.17c-4.63,1.79-9.15,1.63-13.58-0.5c-0.69-0.33-1.58-0.69-0.55-1.5
		c2.58-2.01,0.59-3-1.17-4.11c-0.81,0.8-1.61,1.6-2.46,2.44c-2-1.83-3.02-4.01-3.83-6.31c-0.49-1.39-0.15-2.06,1.62-1.85
		c1.4,0.17,2.16-0.06,2.17-1.67c0.01-1.71-0.8-2-2.32-1.78c-1.8,0.26-2.03-0.46-1.74-1.83c0.5-2.32,1.52-4.41,2.91-6.4
		c1.05-1.5,1.92-1.61,2.78,0.02c0.95,1.79,1.89,1.93,3.57,0.5c1.31-1.11,0.23-1.59-0.29-2.25c-1.8-2.32-1.84-2.35,1.12-3.39
		c4.52-1.59,8.87-1.16,13.11,0.92c1.76,0.86,1.98,1.64,0.51,2.9c-0.78,0.66-1.89,1.29-0.37,2.54c1.37,1.13,2.18,1.25,3.15-0.18
		c0.97-1.43,1.77-1.39,2.61,0.15c0.81,1.47,1.5,2.96,1.95,4.54c0.43,1.52,0.51,2.76-2.04,2.43c-1.84-0.24-1.17,1.12-1.27,1.92
		c-0.11,0.89-0.14,1.78,1.4,1.56c2.3-0.34,2.14,0.76,1.66,2.16C259.57,510.7,258.27,512.92,256.18,514.84z"/>
	<g>
		<g>
			<path class="st22" d="M253.55,299.42c-0.05-0.29-0.09-0.58-0.13-0.87C253.46,298.84,253.51,299.13,253.55,299.42z"/>
			<path class="st22" d="M252.2,273.65c-0.08,0.67-0.15,1.34-0.18,2.01c-0.02,0.65-0.03,1.3-0.04,1.96
				C252.04,276.29,252.11,274.97,252.2,273.65z"/>
			<path class="st22" d="M445.86,265.77c-2.08-3.99-4.73-7.9-9.32-9.27c-9.18-2.73-18.04-7.4-27.93-6.6
				c-8.88,0.72-16.58-0.65-22.08-8.36c-0.27-0.38-0.8-0.58-1.22-0.86c-7.86-5.24-14.43-3.72-18.06,5.03
				c-5.76,13.91-11.03,28.04-16.27,42.16c-5.61,15.14-7.44,31.2-10.8,46.87c-2.22,10.33-5.47,20.54-5.09,31.3
				c0.5,0.32,0.95,0.27,1.37-0.15c0.89-1.28,1.09-2.8,1.29-4.26c1.52-10.88,4.26-21.52,6.58-32.23c2.22-10.23,3.94-20.55,6.7-30.68
				c4.04-14.83,10.8-28.6,16.24-42.88c1.24-3.25,2.09-6.68,3.97-9.67c2.92-4.66,6.68-5.62,11.49-2.98c1.77,0.97,3.21,2.36,4.64,3.75
				c5.58,5.44,12.08,9.98,16.2,16.83c0.46,0.77,1.21,1.85,2.37,1.23c1.01-0.54,0.92-1.69,0.7-2.67c-0.83-3.53-3.25-6.03-5.46-8.28
				c9.64,0.16,19.11,1.91,28.45,5.24c6.46,2.29,10.91,5.94,13.95,11.86c11.48,22.34,18.82,45.73,18.47,71.13
				c-0.12,8.46-1.76,16.48-6.26,23.79c-2.24,3.64-5.11,4.87-9.29,3.27c-3.91-1.5-7.62-3.29-11.08-5.65
				c-12.27-8.38-21.96-19.25-30.55-31.21c-7.43-10.34-11.85-22.29-17.94-33.34c-2.3-4.18-3.96-8.8-7.64-12.12
				c-0.87-0.18-1.42,0.22-1.79,0.96c-0.6,2.16,0.56,3.9,1.49,5.62c6.6,12.27,11.15,25.58,18.81,37.32c1.23,1.89,0.87,3.14-0.88,4.63
				c-7.49,6.34-14.32,13.4-20.96,20.59c-6.96,7.54-14.16,15.09-18.36,24.65c-1.66,3.78-3.53,4.11-6.88,2.6
				c-8.06-4.59-33.59-8.89-43.39-7.54c-2.25,0.13-2.5-0.93-2-2.71c4.83-17.43,4.53-35.08,2.85-52.9
				c-2.27-24.03-5.9-47.71-14.07-70.57c-8.77-24.53-17.27-49.13-34.36-69.58c-6.19-7.4-8.61-7.5-14.37,0.64
				c-0.67,0.95-1.32,1.92-1.92,2.91c-19.54,32.08-24.11,66.8-19.08,103.51c5.07,36.96,19.16,70.82,34.71,104.23
				c1.34,2.88,0.93,4.34-1.19,6.23c-4.68,4.18-8.55,8.98-11.08,16.18c5.17-5.68,8.9-11.08,14.91-14.01
				c11.78-9.35,25.19-14.56,40.21-15.15c25.29-0.98,49.01,3.26,68.17,21.63c3.57,3.43,7.04,6.97,10.55,10.46
				c0.16-0.12,0.31-0.24,0.47-0.36c-1.24-2.47-2.48-4.94-3.72-7.42c-5.53-7.02-10.47-14.58-18.32-19.44
				c-2.64-1.64-0.76-3.5,0.16-5.11c10.22-18.04,25.77-31.57,39.61-46.55c2.22-2.4,3.64-1.57,5.5,0.7
				c4.32,5.27,8.74,10.48,13.52,15.32c7.85,7.94,16.24,15.28,27.08,18.99c7.09,2.43,10.71,0.92,14.41-5.64
				c4.52-8.01,6.14-16.76,6.38-25.82C466.48,314.28,458.22,289.47,445.86,265.77z M300.7,376.65c-11.63-0.04-29.74,8.43-37.32,16.11
				c-0.67,0.68-1.9,0.23-2.24-0.56c-16.73-39.64-33.06-79.03-35.65-122.28c-1.8-30.04,3.54-58.85,19.71-84.94
				c0.61-0.99,1.24-1.97,1.92-2.91c4.79-6.64,5.78-6.61,10.37-0.2c26.27,36.76,39.92,78.23,45.69,122.58
				c2.36,18.13,4.57,36.29,2,54.63c-0.71,5.09-2.32,10.06-2.06,15.27C303.21,376.13,302.6,376.55,300.7,376.65z"/>
		</g>
		<path class="st22" d="M376.33,274.63c-0.86-1.7-1.81-3.35-2.55-5.1c-0.75-1.78-1.46-0.06-2.18-0.1c-0.3,0.45-0.61,0.47-0.91-0.01
			c1.7-1.9,1.93-3.85,0.65-6.17c-0.97-1.76-1.52-3.75-1.74-5.84c3.79,4.78,5.85,10.35,7.72,16
			C376.99,273.82,376.66,274.22,376.33,274.63z"/>
		<path class="st22" d="M370.69,269.42c0.3,0.11,0.6,0.11,0.91,0.01c-3.92,9.6-8.98,18.68-11.31,28.99
			c-3.69,16.29-8.34,32.37-9.58,49.94c10.75-14.13,17.99-30.42,33.58-39.69c-16.02,14.11-24.6,33.44-36.43,50.99
			c-1.11-3.7,0.26-6.96,0.53-10.25c0.28-3.3,0.6-6.6,1.15-9.86c2.99-17.79,6.69-35.44,11.86-52.72
			C363.28,280.51,366.5,274.65,370.69,269.42z"/>
		<path class="st22" d="M281.06,365.26c-1.69-35.02-6.15-69.79-9.88-104.61c-2.09-19.53-7.8-38.23-18.28-55.17
			c-0.67-1.08-1.12-2.28-1.36-3.63c3.61,3.03,6,6.94,8.08,11.06c9.64,19.11,13.98,39.56,15.88,60.72
			c1.99,22.16,4.46,44.28,6.56,66.44C282.84,348.47,282.64,356.9,281.06,365.26z"/>
		<path class="st22" d="M259.65,322.24c-11.83-34.84-13.43-69.91-2.69-105.25c0.71,4.01-0.69,7.8-1.48,11.63
			c-6.25,30.24-4.7,60.04,4.65,89.46c0.3,0.93,0.34,1.95,0.5,2.92C261.1,322.05,260.62,322.33,259.65,322.24z"/>
		<path class="st22" d="M259.65,322.24c0.33-0.41,0.66-0.82,0.98-1.23c2.51,5.89,3.87,12.13,5.38,18.3
			c2.55,10.42,7.41,19.88,11.67,29.61c-0.03,0.3-0.19,0.43-0.49,0.41c-6.6-9.57-10.28-20.37-13.24-31.47
			C262.57,332.64,261.09,327.44,259.65,322.24z"/>
	</g>
</g>
</svg>
