<?xml version="1.0" encoding="utf-8"?>
<!-- Generator: Adobe Illustrator 24.0.2, SVG Export Plug-In . SVG Version: 6.00 Build 0)  -->
<svg version="1.1" id="图层_1" xmlns="http://www.w3.org/2000/svg" xmlns:xlink="http://www.w3.org/1999/xlink" x="0px" y="0px"
	 viewBox="0 0 595.28 841.89" style="enable-background:new 0 0 595.28 841.89;" xml:space="preserve">
<style type="text/css">
	.st0{fill:#FFFFFF;}
	.st1{fill:#E60012;}
	.st2{fill:#A40B5D;}
	.st3{fill:#E73B8F;}
	.st4{fill:#8FC31F;}
	.st5{fill:#009A3E;}
</style>
<g>
	<path d="M438.45,525.55c2.5,1.68,3.52,2.43,4.6,3.09c7.55,4.64,9.52,8.53,7.14,17.14c-1.31,4.76-2.5,9.65-6.73,13.44
		c-5.74,5.15-8.86,5.48-14.06-0.48c-0.42-0.48-0.86-0.95-2.07-2.3c0,3.43,0.05,5.95-0.01,8.47c-0.14,6.33-6.84,10.39-12.46,7.55
		c-4.88-2.46-9.44-4.13-15.42-2.29c-2.65,0.82-6.76-2.96-10.15-4.74c-1.07-0.56-1.97-1.43-3.66-1.44c1.88,2.2,3.74,4.41,5.63,6.59
		c1.95,2.25,2.06,4.4-0.15,6.57c-2.79,2.74-5.21,5.99-8.36,8.18c-2.56,1.78-5.96,2.35-9.01,3.4c-0.43,0.15-0.99-0.15-1.48-0.12
		c-9.79,0.64-9.78,0.64-13.26-8.51c-0.29-0.75-0.69-1.46-1.05-2.21c-0.43,0.25-0.89,0.36-0.96,0.58c-3.41,11.42-9.66,9.44-16.8,4.08
		c-3.04-2.28-6.21-4.61-8.57-7.53c-4.81-5.94-4.06-11.11,1.66-16.09c1.18-1.02,2.39-2.02,3.58-3.02c-0.42-0.48-0.85-0.96-1.27-1.44
		c-3.57,3.53-8.87,6.46-10.37,10.71c-3.56,10.1-11.51,15.21-18.99,21.62c-8.73,7.49-17.2,9.82-28.28,6.46
		c-11.48-3.49-23.51-2.54-35.23-0.59c-11.84,1.97-21.33-0.78-29.63-9.9c-5.84-6.43-12.63-11.86-13.97-21.13
		c-0.09-0.62-0.42-1.36-0.88-1.76c-7.85-6.97-8.7-16.86-11.11-26.12c-2.27-8.68-4.37-17.41-7.12-25.94
		c-4.24-13.16-11.88-23.97-23.16-32.3c-2.05-1.52-3.73-5.46-3.36-7.95c1.03-6.97-2.25-10.8-7.55-14.17
		c-7.94-5.05-12.25-17.31-9.32-26.3c0.52-1.58,1.85-3.56,3.26-4.04c3.87-1.33,4.57-3.91,4.13-7.38c-1.91-15.32-2.17-31.07-6.1-45.85
		c-5.74-21.57-2.64-41.42,5.83-61.19c0.58-1.36,1.16-2.73,1.36-3.2c-4.05-4.92-8.54-8.92-11.09-13.91c-2.04-4-2.45-9.22-2.25-13.85
		c0.23-5.58,1.54-11.18,2.96-16.62c2.13-8.15,7-14.19,15.04-17.49c1.23-0.5,3.06-2.42,2.84-3.12c-2.43-7.66,0.95-14.39,3.02-21.34
		c0.85-2.87,1.62-5.76,2.63-8.57c0.49-1.35,1.22-3.29,2.28-3.65c5.38-1.82,6.11-5.88,5.95-10.66c-0.04-1.13,0.26-2.35,0.73-3.39
		c3.06-6.81,5.47-13.61,5.28-21.39c-0.12-4.77,5.61-6.73,10.95-4.34c6.73,3.02,10.88,8.68,14.25,14.86
		c7.37,13.52,12.35,27.95,15.62,42.98c0.35,1.61,0.79,3.19,1.37,5.49c25.26-13.87,51.98-12.54,79.38-9.01
		c2.25-4.04,4.2-8.55,7.08-12.35c1.75-2.31,4.87-3.65,7.49-5.22c2.47-1.48,5.41-2.31,7.6-4.09c5.14-4.17,11.06-6.92,17.4-6.45
		c4.53,0.34,8.82,3.38,13.29,5.01c2.38,0.86,4.93,1.23,7.38,1.9c2.62,0.72,5.67,0.99,7.58,2.59c0.76,0.64-0.61,4.54-1.73,6.57
		c-3.66,6.65-4.56,13.74-4.6,21.1c3.24,0.84,6.09,1.79,9.01,2.22c1.17,0.17,2.84-0.46,3.71-1.32c3.46-3.38,5.04-7.41,5.05-12.49
		c0.01-4.13,1.46-8.32,2.68-12.35c0.32-1.07,2.17-1.68,3.31-2.51c0.71,1.21,1.55,2.36,2.09,3.64c0.49,1.15,0.66,2.44,1.13,4.32
		c5.08-4.48,10.26-8.06,14.01-12.77c2.17-2.72,3-7.34,2.72-10.98c-0.63-8.13,0.61-12.5,5.92-14.94c0.55-0.25,1.21-0.25,2.98-0.59
		c-2.78,5.41-7.19,9.89-3.43,16.44c1.83-6.19,4.73-10.68,10.97-11.05c-3.41,7.29-6.81,14.56-10.21,21.82
		c0.44,0.29,0.89,0.59,1.33,0.88c6.45-6.16,12.91-12.32,19.42-18.53c3.9,2.95,3.69,3.36-6.22,11.47c0.36,3.94,0.69,7.62,1.15,12.66
		c5.14-6.39,9.78-12.17,14.44-17.94c2.15-2.66,4.1-5.55,6.63-7.79c0.96-0.85,3.5-0.62,4.93,0c0.89,0.38,1.85,2.94,1.4,3.6
		c-0.84,1.26-2.7,1.82-4.08,2.74c-1.23,0.82-3.1,1.51-3.48,2.65c-1.98,6.04-6.27,10.09-11.05,13.81c-4.79,3.73-7.75,8.47-8.35,13.73
		c3.4-0.26,6.6-0.72,9.78-0.6c0.76,0.03,1.46,1.95,2.49,3.44c-7.7,0.11-9.03,1.09-10.21,5.89c3.04,0.4,6.3,0.47,9.25,1.44
		c0.85,0.28,0.84,3.17,1.4,5.63c-6.49-2.9-10.35-1.7-14.48,4.22c-3.32,4.76-6.18,9.84-9.59,15.36c4.42,3.5,9.03,7.18,13.68,10.79
		c0.63,0.49,1.57,1.08,2.23,0.95c6.88-1.33,10.98,3.78,16.12,6.6c1.76,0.97,4.05,1.06,6.13,1.34c1.11,0.15,2.68-0.67,3.37-0.16
		c5.44,4.03,13.45,5.01,16.15,12.17c1.76,4.67,4.95,4.4,8.36,3.72c6.5-1.31,9.96,0.11,11.59,6.45c1.72,6.7,5,12.07,9.87,16.94
		c5.65,5.65,6.29,13.22,6.88,20.81c0.35,4.47,1.56,8.97,3.01,13.25c1.59,4.69,2.14,8.94-1.05,13.19c-0.91,1.22-1.44,2.93-1.59,4.47
		c-1.08,10.77-7.98,15.45-18.48,12.42c-1.52-0.44-3.06-0.78-4.32-1.1c1.65,4.6,3.52,8.83,4.64,13.24c0.91,3.59-0.45,6.29-4.55,7.52
		c-7.26,2.19-11.5,7.52-13.84,14.55c-1.17,3.51-0.6,5.24,3.73,5.15c13.88-0.28,25.16,5.92,32.43,17.07
		c6.22,9.54,10.35,20.49,14.87,31.05c2.03,4.75,2.93,10.02,3.91,15.14c0.17,0.86-2.14,3.22-2.8,3.04c-2.31-0.62-4.7-1.72-6.54-3.25
		c-8.31-6.9-16.28-14.23-24.74-20.93c-2.86-2.26-6.82-3.13-10.98-4.95c0.35,4.59,1.3,8.94,0.87,13.14
		c-0.71,6.83-2.35,13.56-3.56,20.34c-0.55,3.1-1.12,6.2-1.48,9.33c-0.57,4.93-3.03,6.36-6.7,3c-3.22-2.95-5.56-6.93-8.04-10.62
		c-2.53-3.78-4.75-7.78-7.47-12.27c-3.92,7.85-9.35,1.71-14.59,2.55c2.45,2.27,4.8,3.93,6.46,6.12c2.47,3.26,4.84,6.71,6.54,10.4
		c1.54,3.34,0.43,6.16-3.68,7.15c-0.92,0.22-2.4,1.34-2.33,1.84c0.17,1.12,0.95,2.43,1.88,3.08c4.01,2.79,7.05,6.05,7.12,11.3
		c0.04,3.12-0.98,4.86-4.48,5.26C445.81,523.07,442.81,524.32,438.45,525.55z M430.37,390.45c-2.57,0.95-5.15,1.91-8.54,3.17
		c7.83,3.99,13.86,2.5,19.29-1.89c5.95-4.81,12.28-9.35,17.35-15c6.47-7.21,13.88-9.18,22.86-7.24c2.27,0.49,4.48,1.23,6.71,1.89
		c7.97,2.37,12.68-1.43,12.35-9.67c-0.07-1.71,0.52-4.08,1.71-5.09c3.07-2.62,3.26-5.81,1.38-8.45c-3.5-4.9-3.1-10.27-3.42-15.7
		c-0.36-6.15-0.63-12.6-5.33-17.23c-5.38-5.3-9.26-11.17-10.89-18.62c-0.35-1.6-2.41-4.04-3.67-4.03
		c-6.58,0.05-13.16,0.84-19.75,1.19c-1.46,0.08-3.65-0.06-4.31-0.97c-2.82-3.86-5.19-8.04-7.88-12.36
		c6.04,0.93,8.14,5.84,10.79,10.27c1.93-0.34,3.66-0.64,5.25-0.92c0.99-8.53-8.55-6.5-10.82-11.58c-0.34-0.77-1.95-1.01-3-1.42
		c-0.26-0.1-0.72,0-0.95,0.18c-3.96,3.16-6.55,0.17-9.64-1.81c-3.69-2.38-7.65-4.38-11.65-6.22c-2.43-1.12-5.48-1.09-7.66-2.49
		c-3.32-2.13-6.03-5.19-9.22-7.56c-1.45-1.08-3.62-2.31-5.14-1.97c-6.65,1.45-13.15,3.26-17.37,9.55c-1.38,2.05-4.4,2.93-6.33,4.71
		c-1.61,1.48-3.46,3.33-3.91,5.3c-1.45,6.39-1.22,6.44-7.53,5.1c-11.75,17.06-11.79,17.14-12.4,25.55c0.96-0.04,1.88-0.09,3.71-0.17
		c-5.84,5.06-8.63,10.56-9.45,17.4c-0.66,5.54-3.14,10.5-8.86,12.58c1.06,13.82,2.05,16.13,11.14,26.47c0.55,0.62,1.16,1.26,1.48,2
		c2.45,5.79,6.73,10.45,9.87,15.66c5.2,8.6,15.58,8.21,21.45,14.89c0.44,0.5,2.19-0.15,3.33-0.24c1.48-0.12,2.96-0.28,4.45-0.32
		c5.73-0.14,11.46-0.24,17.19-0.35c0.05-0.64,0.11-1.28,0.16-1.91c-5.16-4.32-11.54-5.86-17.91-7.6c-3.8-1.04-7.82-2.16-11.05-4.28
		c-6.04-3.99-11.55-8.79-17.35-13.15c-5.71-4.29-9.31-9.81-10.62-16.86c-0.78-4.22-1.7-8.42-2.76-12.57
		c-0.81-3.15-0.65-5.52,3.01-6.69c1.09-0.35,2.79-1.66,2.71-2.34c-0.74-5.79,2.09-10.07,5.13-14.53c1.05-1.55,0.68-4.14,0.7-6.26
		c0.02-1.81-0.52-3.63-0.5-5.44c0.06-9.44,4.42-12.51,13.21-9.44c0.62,0.22,1.27,0.35,1.42,0.39c2.15-1.31,4.16-2.13,5.65-3.51
		c4.43-4.13,8.37-8.87,14.85-9.98c0.49-0.08,0.85-0.97,1.25-1.5c2.33-3.09,5.43-4.57,9.19-3.45c4.07,1.22,7.97,2.97,11.99,4.35
		c1.59,0.55,3.82,1.56,4.87,0.92c4.06-2.47,6.93-0.91,8.82,2.4c3.84,6.72,10.21,9.21,16.75,12.43c5.07,2.49,9.3,7.67,12.51,12.57
		c1.8,2.75,2.9,5.49,6,7.29c7.28,4.23,7.99,6.92,5.89,15.19c-0.62,2.42,0.07,5.17,0.05,7.76c-0.02,2.66,0.23,5.41-0.39,7.94
		c-0.56,2.3-2.13,4.36-3.65,7.29c4.34,0.93,8.08,1.72,12.69,2.71c-1.69,0.83-2.51,1.53-3.38,1.62
		c-17.13,1.69-28.41,12.14-38.36,24.93c-2.38,3.06-5.86,5.36-9.14,7.57c-0.92,0.62-2.89-0.32-4.38-0.54
		c3.92-3.65,7.95-7.18,11.72-10.98c2.66-2.68,5.11-5.61,7.38-8.64c4.35-5.81,8.53-11.76,12.72-17.69c0.36-0.5,0.29-1.28,0.48-1.92
		c1.01-3.44,2.25-6.83,2.99-10.33c0.52-2.45,0.81-5.1,0.45-7.56c-0.55-3.83-2.33-7.54-2.55-11.36c-0.64-10.96-4.5-19.69-15.51-23.49
		c-6.27-2.16-11.26-5.46-14.69-11.21c-0.69-1.17-2.52-2.41-3.79-2.37c-6.44,0.2-12.88,0.65-19.28,1.43
		c-1.3,0.16-3.57,2.54-3.35,3.25c1.28,4,0.37,9.25,5.86,11.2c1.05,0.37,1.93,1.86,2.44,3.03c1.52,3.5,3.79,3.88,7.27,2.83
		c2.53-0.76,6.85-1.57,7.9-0.31c4.95,5.95,10.87,6.63,17.7,5.12c0.46-0.1,0.99,0.06,1.48,0.16c5.11,1.05,6.18,3.49,4.91,8.51
		c-1.29,5.07-1.76,10.35-2.62,15.54c-0.57,3.4-0.87,6.88-1.88,10.15c-1.21,3.91-3.18,7.58-4.58,11.44
		C441.17,368.64,438.81,380.9,430.37,390.45z M148.13,430.88c-0.15,0.13-0.32,0.25-0.49,0.36c-1.69-0.12-3.38-0.25-5.92-0.43
		c2.14-2.26,3.29-3.46,4.44-4.67c-0.29-0.34-0.57-0.69-0.86-1.03c-1.46,1.11-3.49,1.91-4.28,3.37c-2.4,4.49,1.22,16.6,5.08,19.78
		c5.1,4.21,10.08,8.6,14.69,13.33c4.7,4.82,14.42,6.53,20.7,4.12c5.81-2.23,12.01-3.85,18.18-4.68c6.86-0.92,12.7,3.39,13.69,10.29
		c0.87,6.03,0.18,12.28,0.18,18.27c4.31-2.6,4.49,2.89,6.87,4.91c4.77-2.47,8.71-2.21,10.73,4.07c4.37-3.56,7.33-1.58,10,2.55
		c4.07-4.86,8.03-3.12,11.94,0.17c3.76-3.95,7.14-2.8,10.43,1.06c4.03-6.27,8.07-4.15,11.82-0.34c5.08-3.25,5.08-3.25,11.44-0.04
		c2.59-4.2,5.68-7.44,10.26-2.57c2.23-1.62,4.53-4.46,5.87-4.06c5.04,1.51,7.98-2.77,12.28-3.11c0.11-1.92,0.2-3.56,0.31-5.21
		c0.46-6.65,2.4-12.77,6.96-17.77c4.2-4.59,9.98-5.34,14.85-2.2c5.42,3.49,5.63,4.83,2.61,12.68c-4.76,12.39-9.4,24.82-14.1,37.23
		c-0.88,2.33-1.46,4.89-2.83,6.89c-1.1,1.61-3.2,2.56-4.85,3.8c-0.22-0.35-0.45-0.71-0.67-1.06c0.99-2.4,1.98-4.8,2.98-7.21
		c-3.04,1.59-5.08,3.92-7.64,5.3c-7.14,3.86-15.02,6.59-21.53,11.25c-3.14,2.25-4.92,2.98-8.2,0.8c-1.37,5.3-5.29,4.87-9.38,4.08
		c3.73,3.2,6.84,0.75,10.17,0.5c6.52-0.5,10.34-4.65,15.26-7.53c4.6-2.69,9.9-4.21,14.89-6.24c0.23,0.54,0.46,1.09,0.69,1.63
		c-1.42,0.69-2.84,1.36-4.25,2.06c-3.62,1.8-7.81,2.96-10.73,5.55c-5.93,5.25-13.15,6.9-20.35,8.51c-5.5,1.24-11.24,1.85-16.88,1.96
		c-5.93,0.12-11.95-0.25-17.8-1.21c-5.26-0.86-10.57-2.3-15.45-4.43c-4.29-1.88-8-5.07-11.97-7.68c8.79,2.94,16.95,7.66,25.73,9.67
		c8.77,2.01,18.17,1.32,27.3,1.81c-0.01-0.3-0.02-0.6-0.03-0.9c-2.11-1.14-4.22-2.28-6.6-3.57c-2.75,5.16-5.82,2.57-8.37,0.43
		c-2.23,0.81-4.28,2.36-5.81,1.96c-5.93-1.56-11.96-3.2-17.43-5.86c-4.85-2.35-10.31-3.99-13.95-8.59c-0.65-0.82-2.85-0.4-4.73-0.6
		c-4.47-6.73-9.2-13.85-13.93-20.97c-0.19,0.11-0.39,0.22-0.58,0.33c1.96,3.92,3.92,7.84,5.89,11.76c-0.31,0.16-0.63,0.31-0.94,0.47
		c-4.53-7.65-9.05-15.3-13.58-22.96c-0.26,0.1-0.51,0.19-0.77,0.29c1.95,10.15,3.89,20.3,5.84,30.45c-0.47,0.11-0.94,0.22-1.41,0.33
		c-3.2-8.62-6.4-17.24-9.61-25.85c3.6,15.19,7.32,30.29,11.28,45.32c0.63,2.39,2.33,4.5,3.54,6.74c0.33-0.2,0.65-0.39,0.98-0.59
		c-0.68-4.63-1.36-9.27-2.04-13.9c0.34-0.06,0.67-0.12,1.01-0.17c2.48,10.21,4.95,20.43,7.43,30.64c0.42-0.12,0.84-0.24,1.25-0.36
		c-0.87-5.53-1.73-11.06-2.63-16.59c-0.89-5.5-1.83-10.99-2.74-16.48c0.59-0.12,1.17-0.23,1.76-0.35c2.41,9.79,4.75,19.6,7.23,29.37
		c4.45,17.56,12.77,23.73,30.39,21.74c15.04-1.69,29.87-1.85,44.61,2.18c2.26,0.62,5.57,0.83,7.23-0.37
		c6.98-5.07,15.24-8.86,17.92-18.47c1.94-6.97,5.11-13.59,7.73-20.37c0.41,0.14,0.82,0.28,1.24,0.42
		c-2.29,7.66-4.59,15.31-6.88,22.97c0.21,0.1,0.42,0.21,0.64,0.31c4.97-7,9.94-14,14.96-21.08c-5.77-3.79-8.04-9.53-5.6-17.08
		c1.1-3.41,1.62-7,2.71-10.41c2.58-8.06,7.51-11.36,15.21-10.95c3.82-7.38,7.51-14.5,11.25-21.71c-1.32-0.75-2.87-1.63-5.44-3.09
		c-4,7.32-7.88,14.43-11.76,21.53c0.7-8.26,3.3-15.64,9.13-21.44c2.9-2.89,4.95-5.44,1.34-9.22c-0.8-0.83-0.96-2.42-1.1-3.7
		c-0.47-4.19-0.68-8.42-1.22-12.61c-1.19-9.26,1.48-11.91,10.71-10.49c2.39,0.37,4.79,0.65,6.89,0.94c0-5.57,0.09-10.68-0.03-15.79
		c-0.11-5-4.94-8.37-8.94-5.58c-9.15,6.37-17.03,1.89-25.76-1.61c0.88-0.29,1.21-0.52,1.48-0.46c1.46,0.32,2.97,0.55,4.34,1.11
		c10.27,4.22,17.71-0.5,24.26-7.71c3.32-3.65,2.75-5.66-1.4-7.49c-1.61,2.13-2.87,4.52-4.78,6.18c-8.91,7.78-34.63,8-43.42-4.54
		c-1.73-2.46-5.07-4.13-8.01-5.33c-5.55-2.28-9.44-5.47-9.58-11.93c-0.07-3.49-0.3-6.97-0.44-10.46
		c-0.31-7.56-4.24-13.19-9.92-18.31c-1.38,3.56-2.25,7.03-2.38,10.52c-0.14,3.63,0.37,7.29,0.7,10.92
		c0.64,6.94,0.85,14.05,8.46,17.81c1.12,0.55,1.92,2.31,2.32,3.68c4.04,13.46,4.98,27.02,1.33,40.79c-1.23,4.63-3.41,7.39-8.51,7.23
		c-4.26-0.13-6.22,2.36-6.99,6.3c-0.37,1.88-1.27,3.66-1.94,5.49c-0.62-0.06-1.25-0.11-1.87-0.17c-0.36-3.65-0.95-7.3-1.03-10.96
		c-0.15-7.02,0.1-7.11,6.71-4.7c6.57,2.4,9.53,1.03,10.5-4.87c0,0-0.11,0.14-0.11,0.14c0.68-2.01,1.92-4.02,1.92-6.03
		c0-7.96-0.2-15.94-0.69-23.89c-0.38-6.12-3.29-11.01-8.34-14.69c-4.33-3.15-6.7-7.56-7.91-13.24c1.61,1.2,2.78,2.07,3.95,2.94
		c-2.26-11.44,1.69-24.2-8.23-33.48c-6.64,6.51-6.32,7.04-7.6,15.42c-1.79,11.75-3.49,23.78-13.88,31.97
		c-1.23,0.97-2.14,2.61-2.7,4.12c-5.29,14.28-1.27,27.77,3.8,41.1c0.43,1.12,2.35,2.69,3.16,2.48c3.29-0.85,6.71-1.87,9.54-3.68
		c4.08-2.63,5.17-2.5,6.03,2.35c0.4,2.28,0.67,4.63,0.6,6.94c-0.1,3.38-0.54,6.76-0.84,10.14c-0.57-0.02-1.14-0.04-1.71-0.07
		c-0.41-1.19-0.87-2.37-1.22-3.58c-2.25-7.74-3.52-8.42-11.74-7.68c-1.65,0.15-4.13-0.85-5.03-2.15c-1.85-2.66-3.34-5.76-4.16-8.89
		c-1.22-4.64-1.05-9.7-2.67-14.15c-3.36-9.23-0.34-17.67,2.09-26.26c0.33-1.16,1.4-2.34,2.44-3.02c6.78-4.46,9.48-11.55,11.56-18.7
		c1.75-6.02-0.2-11.86-4-17.4c-2.3,3.77-3.89,7.63-5.06,11.61c-0.72,2.47-0.28,5.35-1.26,7.67c-2.25,5.34-4.72,10.65-7.78,15.55
		c-1.52,2.42-4.57,3.88-6.91,5.8c-2.33,1.91-5.44,3.41-6.79,5.87c-2.35,4.28-5.5,6.54-10.16,6.93c-3.15,0.26-6.32,0.45-9.48,0.39
		c-26.06-0.5-42.1-22.58-34.48-47.41c0.29-0.95,1.13-2.37,0.78-2.78c-4.53-5.31,0.28-8.65,3.02-11.47
		c9.97-10.24,21.92-15.38,36.56-12.01c3.08,0.71,6.22,1.32,9.36,1.51c7.93,0.47,13.97,4.05,18.35,10.51
		c2.73,4.03,5.25,8.21,7.78,12.19c2.33-2.69,4.54-5.24,7.66-8.82c1.96,4.87,3.39,8.45,4.71,11.72c0.34-2.59-0.05-5.95,1.29-8.37
		c2.09-3.79,5.34-6.94,8.09-10.36c2.54,2.38,5.09,4.75,7.61,7.14c0.46,0.43,0.83,0.96,1.24,1.46c4.49-4.24,4.49-4.24,12.89,6.84
		c4.82-3.47,2.86-11.98,10.79-13.92c-1.29,2.97-2.34,5.39-3.39,7.81c1.89-1.05,2.69-2.68,3.66-4.2c2.03-3.18,3.7-6.74,6.33-9.34
		c3.43-3.39,3.85-7.57,1.17-11.75c-2.34-3.65-4.5-7.81-5.21-12c-0.87-5.15,0.02-10.56-0.16-15.85c-0.15-4.24,1.71-5.63,5.73-5.28
		c2.64,0.23,5.34,0.2,7.99-0.02c6.89-0.57,12.07-5,15.39-10.04c1.62-2.46-0.93-8.02-2.28-11.95c-1.37-4-2.99-8.5-9.52-6.29
		c-0.16-2.89-0.3-5.26-0.46-8.1c-6.96,0.37-10.33-3.27-11.96-9.56c-1.22-4.7-3.34-9.16-5.09-13.72c-1.15-2.99-2.35-5.96-3.53-8.95
		c0.39-0.13,0.77-0.27,1.16-0.4c3.9,2.39,7.8,4.77,11.69,7.15c-0.93-7.83-6.21-12.12-10.35-17.08c-2.61,4.26-5.22,8.81-8.11,13.18
		c-1.92,2.9-3.7,6.36-6.46,8.17c-8.16,5.36-11.39,14.83-18.48,20.98c-0.52,0.45-0.67,1.56-0.65,2.35c0.22,5.93-3.41,9-8.18,11.34
		c-2.09,1.02-4.08,2.24-6.14,3.35c-2.41,1.3-3.36,2.9-3.2,5.98c0.13,2.47-1.65,5.09-2.75,7.57c-0.5,1.15-1.81,2.05-2.03,3.21
		c-2.42,12.84-9.04,20.04-21.56,20.2c-6.34,0.08-13.24-2.46-18.96-5.55c-8.1-4.37-10.23-12.11-7.66-21.01
		c1.48-5.13,2.8-10.31,4.36-16.07c-5.42,3.19-10.09,6.49-15.2,8.81c-5.83,2.65-11.92,5.14-18.16,6.35
		c-4.53,0.88-6.27,1.96-5.91,6.77c0.9,12.15,1.31,24.33,1.99,37.95c-0.83-2.38-1.4-3.42-1.54-4.51c-1.37-11.21-3.1-22.41-3.79-33.66
		c-0.3-4.92-1.75-7.28-6.48-7.75c-12.28,25.03-14.47,50.73-5.16,77.01c0.77-1.67,1.39-3.8,2.62-5.52c8.26-11.55,10.45-24,7.06-37.84
		c-1.55-6.33-1.47-13.06-2.13-19.61c3.31,11.43,5.47,22.97,7.54,34.52c0.55,3.1,1.06,6.26,1.1,9.4c0.05,3.46,0.19,7.14-0.86,10.34
		c-3,9.15-6.77,18.05-9.84,27.18c-1.23,3.64-1.66,7.61-2.03,11.47C148.85,417.46,148.56,424.18,148.13,430.88z M402.53,413.47
		c0.51,0.02,1.03,0.05,1.54,0.07c-0.73,4.85-1.39,9.71-2.19,14.55c-0.66,3.99,1.67,6.34,5.28,4.62c1.96-0.94,3.05-3.57,4.75-5.22
		c1.92-1.86,3.93-4.51,6.19-4.84c1.71-0.25,4.3,2.27,5.75,4.14c2.48,3.21,4.77,5.75,9.44,4.89c1.7-0.32,3.76,0.72,5.53,1.45
		c2.06,0.84,3.98,2.02,5.21,2.66c2.89-3.26,4.8-6.6,7.68-8.45c6.96-4.48,8.88-12.05,12.59-18.53c1.95-3.4,3.79-6.91,5.22-10.56
		c0.91-2.31,1.97-5.38,1.14-7.33c-0.85-2.01-3.93-3.07-6.75-5.06c-0.3,4.14-0.49,6.75-0.69,9.53c-1.12-0.35-1.51-0.36-1.73-0.56
		c-5.55-4.97-7.02-4.64-9.11,2.16c-0.78,2.54-2.01,4.27-5,3.39c-1.39-0.41-2.71-1.06-3.31-1.3c-6,2.6-5.26,7.21-4.77,11.73
		c0.2,1.82,0.67,3.63,0.63,5.44c-0.03,1.39-0.66,2.77-1.03,4.16c-0.45,0.01-0.91,0.02-1.36,0.04c-0.89-1.88-1.48-3.97-2.71-5.59
		c-3.26-4.28-6.45-8.75-10.4-12.32c-1.51-1.36-5.07-0.89-7.61-0.57c-2.74,0.34-5.35,1.58-8.06,2.25c-3.41,0.83-7.09,0.95-10.24,2.32
		c-6.02,2.6-11.66,3.15-16.76-0.32c-1.7,0.74-3.55,2.21-4.38,1.77c-1.43-0.76-2.22-2.71-2.67-3.33c-1.84,1.2-3.58,3.26-5.32,3.26
		c-3.47,0.01-2.47-2.78-2.29-5.16c0.31-4.1,0.22-8.25,0.08-12.37c-0.05-1.47-0.74-2.93-1.27-4.86c-3.93,4.79-6.68,19.06-4.47,25.31
		c2.75,7.79,6.21,15.34,9.57,22.9c2.53,5.7,7.88,6.59,13.32,7.24c4.33,0.51,6.92-1.22,7.82-5.49c0.06-0.28,0.39-0.62,0.67-0.71
		c4.61-1.52,5.07-5.73,6.22-9.49C400.19,421.36,401.35,417.41,402.53,413.47z M315.19,358.53c4.02-3.01,6.56-6.52,5.75-11.52
		c-0.63-3.9-1.46-7.8-2.62-11.57c-1.02-3.34-0.33-4.89,3.29-4.38c4.01,0.57,6.53-1.28,8.75-4.43c1.49-2.11,3.74-3.66,5.54-5.57
		c1.22-1.3,2.7-2.61,3.3-4.2c2.81-7.38,7.27-12.19,16.65-10.8c1.24-9.97,1.06-19.02-7.44-27.18c2.54,1.12,4.1,1.8,5.63,2.47
		c7.37-10.75,18.48-18.84,21.58-33.14c3.13,3.39,5.57,6.3,8.29,8.91c4.36,4.18,5.35,4,8.71-0.21c-3.71-3.29-7.52-6.38-10.98-9.83
		c-2.98-2.97-6.14-3.84-9.16-0.9c-2.52,2.46-4.86,5.45-6.23,8.66c-2.74,6.37-6.38,11.37-12.99,14.38c-2.72,1.24-5.38,4.17-6.52,6.97
		c-2.31,5.65-3.7,11.69-5.24,17.63c-3.56,13.75-17.9,25.04-32.01,25.08c-1.42,0-2.84,0.2-5.03,0.37c0.33,6.69-0.45,13.26,1.23,19.13
		C307.66,345.27,311.78,351.53,315.19,358.53z M362.33,382.5c-2.34-3.74-4.28-6.69-6.06-9.75c-1.24-2.14-1.67-5.42-3.46-6.45
		c-6.49-3.72-8.28-10.25-10.4-16.34c-1.54-4.42-1.89-9.44-1.73-14.15c0.05-1.45,3.54-2.76,5.4-4.2c0.51-0.39,1.02-0.95,1.23-1.54
		c2.58-7.03,5.11-14.08,7.84-21.64c-4.5,0.19-8.98,0.05-10.44,4.67c-1.8,5.7-4.75,9.98-9.25,14.07c-3.97,3.6-6.6,8.47-12.58,7.33
		c0.57,6.34,1.8,12.13,1.46,17.82c-0.67,11.1,9.24,16.85,12.25,25.98c0.08,0.25,0.56,0.35,0.8,0.58c2.36,2.26,4.44,4.92,7.12,6.7
		c3.22,2.15,6.81,4.13,10.52,4.95c1.22,0.27,3.31-3.3,4.96-5.16C360.97,384.26,361.86,383.07,362.33,382.5z M215.22,260.27
		c0.22,0.08,0.43,0.16,0.65,0.24c0.67-2.48,1.33-4.97,2-7.45c0.27,0.05,0.53,0.1,0.8,0.15c0.1,1.87,0.21,3.75,0.35,6.21
		c1.33-0.98,2.09-1.58,2.89-2.11c0.77-0.51,1.58-0.95,2.37-1.41c0.17,0.16,0.33,0.32,0.5,0.49c-1.05,1.53-2.1,3.06-3.16,4.59
		c22.2-15.66,43.9-32.06,72.65-33.78c-3.16-1.09-6.21-2.09-9.3-2.27c-9.12-0.53-18.27-0.95-27.4-1.01
		c-14.42-0.1-27.96,3.75-40.85,9.97c-1.1,0.53-2.47,2.05-2.45,3.08C214.4,244.74,214.86,252.51,215.22,260.27z M447.27,497.25
		c-2.3-8.3-7.4-12.9-13.57-16.38c-5.78-3.26-12.08-3.55-18.4-1.84c3.2,2.24,6.46,4.53,9.71,6.81c-0.19,0.29-0.37,0.58-0.56,0.87
		c-4.38-2.24-8.76-4.47-13.14-6.71c-0.09,0.24-0.19,0.48-0.28,0.73c3.56,3.47,7.13,6.94,10.69,10.41c-0.79,0.78-1.58,1.56-2.37,2.35
		c-1.05-1.67-1.79-3.7-3.22-4.93c-2.23-1.92-4.79-3.58-7.46-4.84c-2.44-1.16-4.41-0.39-4,2.83c1.6,12.57,5.84,23.94,15.96,32.22
		c2.1,1.72,5.01,5.53,8.14,0.68c0.09-0.14,1.04,0.22,1.56,0.4c3.33,1.16,4.26-0.35,3.82-3.39c-0.18-1.22-0.4-2.43-0.71-4.25
		c1.4,1.26,2.3,2.07,4.41,3.97c-0.28-3.5-0.44-5.59-0.65-8.22c1.03,0.93,1.83,1.64,2.63,2.36c0.46-0.22,0.91-0.45,1.37-0.67
		c-1.26-4.1-2.52-8.2-3.61-11.72C440.04,497.76,443.19,497.54,447.27,497.25z M373.35,507.05c0.56,3.07,0.54,6.42,1.96,8.97
		c0.55,0.99,4.37,0.16,6.92,0.16c0.44,5.7,0.82,6.1,6.29,5.46c0.39-1.82,0.79-3.64,1.49-6.89c1.76,4.58-0.36,9.23,4.83,11.05
		c0.3-2.17,0.55-3.97,1-7.18c0.86,2.15,1.09,3.06,1.56,3.82c0.9,1.44,1.84,3.8,2.95,3.91c1.43,0.14,4.07-1.26,4.41-2.5
		c1.41-5,3.21-10.29,2.8-15.3c-0.39-4.79-3.33-9.37-5.6-15.19c-0.3,3.95-0.51,6.72-0.72,9.5c-0.3,0-0.61,0.01-0.91,0.01
		c-0.56-4.16-1.12-8.31-1.68-12.47c-0.24,0.02-0.48,0.04-0.71,0.07c-0.55,1.81-1.1,3.63-1.65,5.44c-0.23-0.02-0.45-0.04-0.68-0.06
		c-0.19-1.95-0.38-3.9-0.6-6.15c-1.3,1.02-2.21,1.73-3.5,2.74c0.44-2.04,0.74-3.46,1.04-4.88c-0.35-0.12-0.71-0.25-1.06-0.37
		c-1.55,3.31-3.1,6.62-4.66,9.92c-0.25-0.08-0.5-0.17-0.75-0.25c0.82-3.08,1.65-6.16,2.66-9.96c-8.36,2.95-14.73,7.51-18.94,14.49
		c-1.62,2.68-3.08,6.51,1.55,9.05C372.21,509.02,372.92,507.8,373.35,507.05z M386.19,352.69c0.21-0.39,0.43-0.77,0.64-1.16
		c-1.04-1.23-2.1-2.44-3.12-3.68c-6.82-8.23-11.45-17.26-9.25-28.33c0.4-2.02,2.8-3.58,3.51-5.62c1.87-5.39,5.66-6.58,10.74-5.79
		c0.31,0.05,0.68-0.81,1.11-0.92c1.23-0.3,2.72-0.96,3.73-0.56c6.15,2.47,12.65,4.51,18.18,8.02c7.52,4.78,11.94,12.35,11.84,21.35
		c-0.1,8.56-0.02,9.72,7.68,12.89c5.32-5.88,1.6-11.92-0.46-18.52c4.77,3.95,4.77,3.95,6.1,16.01c2.14-4.43,2.23-8.38-0.16-11.42
		c-3-3.82-6.61-7.41-10.61-10.13c-4.99-3.4-8.96-7.2-11.24-12.88c-1.6-3.98-2.12-8.9-7.85-9.91c-4.39-0.78-9.12-3.82-12.93-2.85
		c-7.42,1.88-13.47-0.21-19.63-3.21c-3.77-1.83-5.31,0.18-6.19,3.16c-0.45,1.52-0.38,3.35-0.02,4.92c1.39,6.1,0.65,11.89-2.17,17.42
		c-2.82,5.53-0.55,10.5,1.63,15.57c-4-11.46,4.86-21.11,4.07-32.09c2.39,5.74,2.34,11.48-0.48,16.82
		c-4.69,8.87,0.84,24.06,10.82,29.78C383.3,352.26,384.83,352.33,386.19,352.69z M442.34,446.07c-0.85-2.21-1.1-5.45-2.8-6.61
		c-1.86-1.28-5.75-1.77-7.51-0.66c-4.7,2.97-9.12,6.63-12.92,10.7c-3.9,4.18-5.88,9.43-3.96,15.41c1.32-0.63,2.64-1.26,4.9-2.33
		c-2.01,2.59-3.31,4.26-5.48,7.06c4.9-2.46,8.36-4.19,11.81-5.93c0.15,0.27,0.3,0.54,0.45,0.81c-3.67,2.8-7.34,5.6-11.02,8.4
		c0.23,0.59,0.47,1.18,0.7,1.77c5.15-0.42,10.3-1.03,15.45-1.19c3.43-0.1,7.14-0.27,10.26,0.86c5.04,1.83,6.7-0.08,7.27-4.82
		c-1.14-0.84-2.31-1.71-4.1-3.03c2.14,0.1,3.38,0.15,5.57,0.25c-0.46-2.4-0.23-4.89-1.36-6.03c-1.23-1.23-3.73-1.2-6.51-1.95
		c2.73-0.69,4.52-1.14,7.65-1.92c-2.17-1.4-3.1-2.28-4.21-2.65c-1.13-0.37-2.42-0.23-3.09-0.27c1.23-1.51,2.49-3.05,3.74-4.59
		C445.53,448.24,443.88,447.12,442.34,446.07z M384.36,465.65c-11.27-3.89-23.17-9.01-36.6-8.45c2.91,6.41,10.89,1.81,14.32,6.74
		c-4.88-0.28-9.83-0.56-14.77-0.85c-0.09,0.75-0.18,1.51-0.26,2.26c4.33,0.47,8.67,0.94,13,1.4c-2.9,1.13-5.72,1.05-8.45,1.54
		c-1.51,0.27-2.85,1.49-4.27,2.28c1.59,0.74,3.15,2.01,4.78,2.12c4.39,0.3,8.8,0.1,13.21,0.1c-0.02,0.5-0.03,1-0.05,1.5
		c-2.16,0-4.32-0.1-6.47,0.03c-2.32,0.14-4.72,0.21-6.92,0.85c-1.51,0.44-2.73,1.83-4.09,2.79c1.62,0.59,3.23,1.61,4.87,1.67
		c2.88,0.11,5.79-0.38,8.69-0.61c-2.58,1.35-5.43,1.56-7.53,2.93c-1.35,0.88-1.59,3.46-2.33,5.28c1.53,0.14,3.06,0.35,4.6,0.4
		c0.79,0.02,1.6-0.26,2.39-0.4c-0.2,0.36-0.39,0.72-0.59,1.08c3.55,2.45,7.08,4.93,10.68,7.28c0.26,0.17,1.16-0.49,1.68-0.88
		c4.87-3.68,9.71-7.39,14.12-10.75C384.36,478.26,384.36,472.72,384.36,465.65z M400.26,433.83c-1.68,1.87-4.33,3.61-5.13,5.98
		c-1.06,3.15-2.9,4.49-5.7,4.51c-4.89,0.03-9.79-0.38-14.67-0.61c0.1,10.29,5.41,16.69,15.56,20.84c-0.31-2.95-0.58-5.61-0.95-9.11
		c3.32,6.49,3.32,6.49,10.1,6.14c0-2.39,0-4.79,0-7.19c0.21-0.06,0.41-0.11,0.62-0.17c1.29,3.19,2.57,6.39,3.86,9.58
		c0.42-0.07,0.85-0.14,1.27-0.21c0.29-1.87,0.5-3.75,0.88-5.6c0.41-2,0.97-3.97,1.47-5.95c0.31,0.06,0.62,0.11,0.93,0.17
		c-0.17,2.66-0.34,5.33-0.51,7.99c2.08-3.5,4.37-6.97,4.91-10.69c0.58-4.01-0.15-8.34-1.13-12.33c-0.19-0.78-4.2-0.43-6.36-0.98
		C403.75,435.8,402.24,434.78,400.26,433.83z M326.47,543.66c3.09,7,21.5,11.22,26.07,6.1c-2.78-1.03-5.45-2.01-8.12-3
		c0.05-0.28,0.11-0.55,0.16-0.83c2,0,4,0,6.66,0c-1.44-1.27-2.27-2.01-3.11-2.75c0.48,0.21,0.96,0.41,1.45,0.62
		c1.26-1.56,2.25-4.02,3.84-4.5c5.32-1.62,1.89-4.42,0.97-6.4c-1.46-3.13-3.15-6.37-5.52-8.8c-2.32-2.38-5.45-4.2-8.54-5.54
		c-2.05-0.88-4.14-0.05-2.54,3.04c0.04,0.08-0.34,0.38-0.65,0.71c-1.06-0.52-2.17-1.05-3.69-1.79c0.22,1.71,0.37,2.97,0.53,4.22
		c-5.27,1.6-5.43,2.66-1.01,7.06c-7.16-0.38-6.96,2.27-2.28,6.44c-1.74,0.14-3.01,0.24-4.28,0.35c-0.36,0.61-0.71,1.21-1.07,1.82
		c1.79,0.76,3.57,1.52,5.36,2.28c-0.34,0.41-0.68,0.81-1.01,1.22C328.79,543.84,327.89,543.77,326.47,543.66z M322.2,358.46
		c-0.86-0.26-1.73-0.53-2.59-0.79c-2.04,5.82-4.75,11.51-5.92,17.5c-0.92,4.72,0.5,9.41,5.18,12.64c1.56,1.08,1.73,4,2.87,5.88
		c1.34,2.22,2.82,4.44,4.65,6.27c2.5,2.5,5.29,4.74,8.13,6.87c1.95,1.46,4.04,3.11,6.32,3.7c5.62,1.46,11.39,2.36,17.91,3.65
		c-0.96-2.76-1.14-6.03-2.88-7.71c-3.29-3.19-7.14-6.57-11.37-7.86c-5.16-1.56-7.55-4.55-9.47-9.01c-0.59-1.38-2.76-3-4.14-2.94
		c-3.85,0.15-4.94-2.03-5.59-5.01c-0.36-1.66-0.63-3.33-0.99-5.3c-1.89,1.11-3.22,1.88-4.54,2.66c-0.5-0.2-1-0.4-1.5-0.6
		C319.58,371.76,320.89,365.11,322.2,358.46z M445.09,321.71c0.5,0.12,1,0.25,1.5,0.37c-0.99,6.87-2.07,13.73-2.95,20.62
		c-0.79,6.21-3.91,10.78-9.11,14.14c-10.64,6.88-22.39,8.73-34.78,7.92c-2.87-0.19-5.76-0.03-8.64-0.03
		c-0.03,0.47-0.06,0.94-0.09,1.41c0.71,0.34,1.38,0.9,2.12,0.99c10.01,1.27,20.22,2.97,30-0.08c8.12-2.53,16.22-5.74,20.21-14.73
		c3.15-7.11,6.81-13.8,5.79-22.08c-0.36-2.93,1.04-6.17,1.97-9.16c1.59-5.09,0.51-6.74-4.77-6.55c-1.32,0.05-2.66,0.26-3.92,0.63
		c-4.17,1.25-7.42,0.06-10.21-3.21c-4.25-4.96-5.13-4.99-13.01-0.48c7.02,2.14,13.02,3.98,17.68,5.4c-1.03,3.86-3.02,7.07-2.19,9.17
		c1.36,3.47,4.55,6.22,7.2,9.56C442.99,330.84,444.04,326.28,445.09,321.71z M434.86,559c0.43-0.24,0.86-0.47,1.3-0.71
		c-0.48-1.63-0.95-3.26-1.75-5.99c1.89,2.08,3.03,3.34,4.02,4.43c1.4-1.25,2.56-2.27,3.79-3.37c-0.83-1.56-1.59-2.98-2.77-5.18
		c1.71,0.95,2.65,1.47,3.59,1.99c0.29-0.33,0.57-0.65,0.86-0.98c-2.08-2.29-4.16-4.57-6.24-6.86c0.17-0.21,0.33-0.43,0.5-0.64
		c2.44,1.55,4.87,3.1,7.31,4.65c0.24-0.3,0.48-0.59,0.72-0.89c-1.32-1.93-2.64-3.85-4.64-6.77c2.12,1.35,3.17,2.01,4.38,2.78
		c1.48-5.34-2.27-7.09-5.42-9.13c-7.49-4.85-15.26-6.62-23.59-2.18c4.18,1.19,8.19,2.33,12.2,3.47c-0.12,0.19-0.23,0.39-0.35,0.58
		c-4.21,0-8.41,0-13.44,0C422.26,542.99,428.56,550.99,434.86,559z M386.15,333.55c0.49,7.01,8.31,17.7,13.38,17.27
		c-1.14-0.89-2.29-1.79-2.5-1.95c5.65-2.75,11.27-5.57,16.96-8.22c6.62-3.09,7.62-5.27,4.97-12.03
		c-4.89-12.49-16.06-15.67-28.19-19.06c-1.12,4.36-1.93,8.29-3.19,12.07c-0.45,1.34-1.83,2.99-3.09,3.32
		c-4.01,1.05-4.54,3.77-3.59,6.89c1.02,3.36,2.71,6.51,4.1,9.75c0.19-3.05-0.91-5.67-1.26-8.39c-0.19-1.5,0.41-3.65,1.46-4.66
		c2.91-2.79,6.95-4.62,9.24-7.77c3.19-4.4,6.72-4.35,10.9-2.75c6.12,2.34,9.44,7.21,11.07,13.27c1,3.72-0.74,6.06-4.48,6.98
		c-1.75,0.43-3.88,0.51-5.11,1.58c-4.81,4.17-9.74,2.11-14.55,0.53c-1.21-0.4-1.91-2.37-2.84-3.61c1.3-0.81,2.52-1.89,3.93-2.36
		c1.9-0.65,3.97-0.83,6.5-1.32c-1.93-3.03-3.36-5.28-4.69-7.37C392.23,328.29,389.46,330.69,386.15,333.55z M379.97,551.81
		c-2.58,0.28-4.07,0.45-5.55,0.61c4.43,2.76,8.81,4.41,12.91,6.58c4.16,2.2,8.05,4.91,12.04,7.38c5.09-7.35,5.09-7.35-0.72-12.27
		c1.17-0.85,2.49-1.81,4.45-3.24c-3.43-1.46-5.63-2.4-7.82-3.33c0.06-0.26,0.13-0.51,0.19-0.77c1.51,0,3.01,0,4.8,0
		c-0.75-6.02-6.15-3.4-9.15-5.55c1.86-0.42,3.39-0.76,4.94-1.1c-2.86-1.63-5.34-3.05-8.32-4.75c-4.08,2.68-8.66,5.61-13.13,8.7
		c-0.64,0.44-1.16,1.75-0.98,2.47c0.15,0.61,1.36,1.07,2.18,1.35c0.82,0.28,1.74,0.25,3.31,0.43c-1.38,0.78-2.03,1.15-3.07,1.74
		C377.28,550.62,378.24,551.04,379.97,551.81z M415.41,546.47c-0.47,0.25-0.94,0.49-1.42,0.74c-0.83-1.56-1.42-3.34-2.56-4.64
		c-2.24-2.55-4.7-4.92-7.24-7.18c-1.64-1.46-3.42-3.12-5.43-3.75c-3.73-1.17-7.66-1.66-11.53-2.33c-0.17-0.03-0.53,1.05-0.59,1.18
		c6.65,3.04,13.94,5.41,16.47,12.56c2.39,6.74,2.91,14.14,4.45,22.3c3.31,2.2,6.1,0.62,7.36-5.55c0.7,3.61,1.14,5.94,1.59,8.26
		c0.56-0.06,1.13-0.12,1.69-0.18c0.19-4.17,0.38-8.34,0.58-12.51c0.3-0.05,0.61-0.09,0.91-0.14c0.48,3.99,0.95,7.98,1.54,12.92
		c6.05-10.43-2.2-31.24-11.53-32.06C411.58,539.49,413.5,542.98,415.41,546.47z M361.3,556.61c-4.1,10.48,0.16,18.21,2.91,26.11
		c0.42,1.2,1.77,2.07,2.7,3.1c0.83-1.25,1.67-2.51,2.36-3.54c1.5,0.8,3.21,1.73,6.08,3.27c-1.1-3.36-1.73-5.29-2.75-8.43
		c2.62,2.89,4.19,4.64,5.77,6.38c0.38-0.15,0.75-0.3,1.13-0.45c0-1.76,0-3.51,0-5.27c0.93,0,1.67,0,2.54,0
		c-0.17-1.38-0.33-2.67-0.37-3c2.21,0,4.17,0,6.12,0c0.1-0.49,0.2-0.98,0.3-1.47c-6.31-5.43-10.08-14.33-20.96-15.1
		c0.93,2.52,1.52,4.12,2.6,7.05C366.51,561.94,364.28,559.66,361.3,556.61z M331.15,231.01c0,5.98-0.15,10.94,0.04,15.88
		c0.18,4.6,0.73,9.19,1.12,13.78c3.28-3.9,5.2-7.92,7.49-11.72c2.12-3.5,4.02-7.64,7.17-9.89c3.44-2.46,4-4.92,4.44-8.71
		c0.99-8.53,2.92-16.95,4.58-26.04c-8,3.49-4.92,14.88-12.07,18.96c1.36-0.65,2.71-1.3,4.07-1.96c0.27,0.39,0.55,0.78,0.82,1.18
		c-2.56,1.98-4.88,4.47-7.75,5.82C337.93,229.79,334.3,230.2,331.15,231.01z M425.32,388.51c9.58-6.49,10.05-16.51,13.97-25.08
		c-13.96,9.5-29.21,10.45-45.04,8.65c7.85,4.64,15.69,9.28,23.56,13.94c0.41-1.59,0.87-3.38,1.62-6.31c1,2.92,1.58,4.62,2.48,7.26
		c1.57-3.44,2.7-5.92,3.83-8.4c0.29,0.08,0.58,0.16,0.87,0.24C426.24,381.5,425.89,384.19,425.32,388.51z M416.51,200.43
		c-3.7,2.61-7.51,4.25-9.76,7.11c-5.01,6.37-9.48,13.21-13.7,20.15c-2.86,4.71-4.9,9.92-7.31,14.9c12.12-7.04,22.23-15.4,28.77-27.5
		C416.88,210.73,417.69,206.62,416.51,200.43z M212.51,516.43c-0.66-4.9-0.33-10.23-2.23-14.59c-2.33-5.34-3.01-10.04-1.78-15.75
		c1-4.64,0.36-9.72-0.08-14.56c-0.27-2.97-2.34-3.71-5.07-2.11c-4.76,2.78-7.2,7.05-6.88,12.37
		C197.28,495.14,203.22,506.39,212.51,516.43z M204,265.42c-0.9-9.06-0.73-9.26-5.8-13.43c-6.65-5.47-13.52-10.68-20.45-15.79
		c-1.8-1.32-4.13-2.15-6.33-2.62c-2.98-0.64-4.95,1.24-3.78,3.92c1.6,3.65,3.52,7.93,6.61,10.02
		C183.51,253.81,193.42,259.16,204,265.42z M369.72,541.95c0.71,0.23,1.42,0.46,2.12,0.69c4.65-5.09,9.29-10.18,13.77-15.08
		c-7.3-5.27-13.68-9.87-20.35-14.68c-3.75,7.37-5.74,15.76-4.72,24.52c1.89,0,3.29,0,4.83,0c0.68-1.19,1.49-2.59,2.22-3.87
		C368.35,536.54,369.04,539.25,369.72,541.95z M315.85,517.05c12.18-7.26,14.87-27.55,13.49-38.02c-0.23-1.77-2.83-3.22-4.34-4.82
		c-1.52,1.48-3.88,2.7-4.42,4.48c-1.91,6.36-3.76,12.85-4.57,19.41C315.25,504.2,315.85,510.45,315.85,517.05z M349.69,582.43
		c4.92-8.02,5.92-16.67,6.07-25.79c-2.06,1.6-3.99,3.11-5.92,4.61c-0.15-0.19-0.31-0.38-0.46-0.57c1.02-1.57,2.03-3.14,3.21-4.95
		c-11.74,1.18-20.12,7.73-18.52,14.31c0.74-0.58,1.44-1.13,2.3-1.81c0,1.94,0,3.61,0,5.61c1.18-0.83,1.97-1.39,2.82-1.99
		c0.22,1.89,0.39,3.41,0.65,5.73c1.57-1.3,2.4-1.99,3.44-2.85C343.45,579.95,343.45,579.95,349.69,582.43z M506.77,446.37
		c-1.49-9.66-7.72-15.46-13.97-19.99c-7.11-5.15-15.51-9.5-24.21-5.35c-1.93-1.65-3.33-2.85-5.03-4.32
		c-1.2,2.78-2.08,4.81-3.31,7.65c8.51,0,16.1,0,23.68,0c0,0.25-0.01,0.5-0.01,0.75c-4.23,0.2-8.46,0.41-12.69,0.61
		c0.02,0.69,0.05,1.38,0.07,2.07c6.35,0,12.7,0,19.05,0c0,0.43,0,0.85,0,1.28c-2.16,0.16-4.32,0.32-7.67,0.57
		c4.78,2.21,8.45,3.92,12.13,5.62c-0.15,0.34-0.3,0.69-0.46,1.03c-3.24-1.15-6.48-2.3-9.71-3.45c-0.16,0.39-0.32,0.79-0.47,1.18
		C491.39,437.97,498.62,441.92,506.77,446.37z M200.75,250.41c-1.96-14.55-10.83-23.35-21.29-31.05c-0.52-0.38-1.21-0.69-1.84-0.72
		c-1.39-0.08-3.45-0.5-4.04,0.21c-0.88,1.06-1.48,3.39-0.89,4.45c1.97,3.56,4,7.37,6.96,10.04
		C186.14,239.18,193.21,244.38,200.75,250.41z M507.49,459.02c-0.21,0.21-0.43,0.43-0.64,0.64c-5.48-6.05-10.96-12.1-16.44-18.15
		c2.23,12.91,12.47,24.64,24.98,29.87c-0.11-13.46-4.9-23.63-17.92-26.59C500.91,449.67,504.2,454.35,507.49,459.02z M454.57,438.56
		c5.12,2.16,9.42,3.97,13.72,5.78c-0.17,0.39-0.35,0.79-0.52,1.18c-3.16-1.05-6.33-2.09-9.49-3.14c-0.13,0.25-0.26,0.49-0.39,0.74
		c4.79,4.82,9.58,9.64,14.36,14.46c-0.29,0.27-0.57,0.53-0.86,0.8c-2.96-2.73-5.93-5.46-8.89-8.18c-0.28,0.26-0.56,0.51-0.84,0.77
		c4.32,6.07,8.65,12.14,12.97,18.21c0.47-4.66,0.09-9.15-0.43-13.63c-0.91-7.93-2.93-15.39-9.21-21c-2.51-2.24-11.92-2.4-15.03,0.35
		c3.8,0.66,7.16,1.24,10.53,1.82c-0.04,0.36-0.07,0.71-0.11,1.07C458.75,438.01,457.11,438.23,454.57,438.56z M432.12,354.18
		c-9.97-8.23-19.99-1.87-29.89-0.81c-0.42,0.04-0.76,0.62-1.19,0.85c-2.13,1.16-4.18,2.6-6.46,3.35c-2.95,0.97-6.08,1.39-9.68,2.17
		c8.39,4.46,14.65-3.12,23.12-2.93c-2.61,2.03-4.3,3.35-5.99,4.66C412.48,360.42,423.3,361.45,432.12,354.18z M313.45,251.76
		c0.88-0.36,1.76-0.73,2.65-1.09c-1.49-2.95-2.68-6.11-4.53-8.82c-4.95-7.2-5.06-7.11,0.14-13.62c0.18-0.23,0.16-0.62,0.23-0.94
		c-4.48-6.19-4.06-12.54,0.32-18.92c-1.4-0.26-1.9-0.5-2.33-0.4c-3.82,0.9-12.12,16.08-10.81,19.76c0.22,0.61,0.55,1.24,1.01,1.7
		c3.74,3.77,3.52,10.48,9.49,12.66c0.57,0.21,0.63,1.72,0.98,2.61C311.52,247.06,312.49,249.41,313.45,251.76z M411.22,386.49
		c0.24-0.21,0.49-0.42,0.73-0.62c-3.82-2.19-7.54-4.55-11.47-6.52c-7.18-3.59-14.21-7.24-18.04-14.88c-0.39-0.77-1.4-1.33-2.24-1.77
		c-4.36-2.27-8.75-4.47-12.78-6.51c0.16,3.07,0.49,7.01,5.18,9.53c3.47,1.86,7.31,4.22,9.29,7.41c2.81,4.52,6.41,6.9,11.21,8.23
		C399.15,383.03,405.18,384.78,411.22,386.49z M222.09,277.31c8.05,4.75,15.86,8.44,24.78,8.12c4.11-0.15,4.95-1.85,3.12-5.46
		c-2.9-5.73-7.57-8.39-13.83-7.05C231.38,273.94,226.77,275.82,222.09,277.31z M356.2,528.73c2.74-7.53,5.3-14.56,8.12-22.3
		c-2.79-4.69-2.79-4.69-8.7-0.69c-1.14-0.92-2.32-1.87-4.05-3.28c-1.85,4.7-3.57,8.79-5.03,12.98c-0.28,0.82,0.18,2.31,0.84,2.91
		c0.48,0.44,1.83-0.08,2.87-0.18c0.45,0.98,1.01,2.19,1.63,3.54c2.01-2.54,3.74-4.73,5.47-6.92
		C357.06,519.61,351.8,523.48,356.2,528.73z M206.57,264.53c0.57,0.01,1.14,0.02,1.71,0.03c0-6.06,0.27-12.13-0.08-18.17
		c-0.31-5.42-0.95-10.88-2.12-16.17c-0.75-3.42-2.97-6.25-8.46-5.94C200.66,237.94,203.61,251.24,206.57,264.53z M485.04,445.14
		c-0.4,0.27-0.8,0.55-1.2,0.82c-3.21-4.17-6.71-8.15-9.54-12.56c-3.33-5.18-8.78-5.83-14.1-8.07c2.54,2.24,4.67,4.06,6.72,5.95
		c1.55,1.42,3.02,2.94,4.53,4.41c0.72-0.46,1.44-0.93,2.16-1.39c0.55,3.61,1.1,7.23,1.56,10.23c2.63,1.71,4.96,3.41,7.47,4.79
		c2.34,1.28,4.86,2.21,8.44,3.79c-2.99-9.48-5.39-17.2-14.32-20.78C479.69,436.84,482.36,440.99,485.04,445.14z M467.79,492.11
		c-1.08-6.54-1.93-11.7-2.78-16.85c-0.29,0-0.57,0-0.86,0c-0.37,1.07-0.74,2.14-1.11,3.21c-0.54-0.05-1.08-0.1-1.62-0.15
		c0-6.45,0-12.89,0-19.34c-0.46-0.01-0.91-0.02-1.37-0.03c-0.65,2.85-1.29,5.69-1.94,8.54c-0.44-0.08-0.89-0.16-1.33-0.24
		c0.5-5.62,1-11.24,1.5-16.86c-0.61-0.04-1.22-0.07-1.84-0.11c-0.75,6.67-1.52,13.34-2.22,20.01c-0.08,0.76-0.01,1.73,0.4,2.33
		C458.67,478.73,462.8,484.77,467.79,492.11z M320.88,215.07c-2.52,2.82-4.09,5.85-2.55,10.08c0.58,1.6-0.05,4.02-0.89,5.69
		c-1.65,3.28-1.85,5.8,0.58,9.05c1.58,2.12,1.42,5.51,2.12,8.31c0.66,2.61,1.42,5.19,2.14,7.78c0.48-0.13,0.96-0.27,1.44-0.4
		c-2.61-6.88-2.5-13.72-1.42-21.05c1.09-7.39,1.62-14.39,9.44-18.46c-0.27-0.33-0.55-0.66-0.82-1
		C327.61,215.07,324.32,215.07,320.88,215.07z M170.12,270.92c6.34,6.39,21.43,9.72,31.42,6.93
		C192.02,269.66,175.62,266.04,170.12,270.92z M242.76,539.29c0.77-4.51,1.51-8.37,2-12.26c0.1-0.76-0.59-2.16-1.22-2.37
		c-5.05-1.7-10.16-3.22-15.28-4.7c-0.49-0.14-1.16,0.31-2.01,0.56c0.46,4.61-0.03,9.24,4.42,13.2c0.26-3.3,0.44-5.74,0.72-9.38
		c1.21,4.76,2.07,8.15,2.93,11.55c0.6-0.08,1.2-0.16,1.8-0.25c0.29-2.77,0.57-5.53,0.86-8.3
		C239.05,531.23,237.22,536.64,242.76,539.29z M383.74,242.82c1.16-3.42,2.27-6.71,3.38-10c-0.2-0.07-0.4-0.15-0.61-0.22
		c-1.23,2.64-2.47,5.27-3.7,7.91c0.39-13.2,9.58-21.38,17.06-30.87c-3.14,0.42-6.95,0.66-8.28,2.6c-4.69,6.78-8.82,14-12.56,21.35
		C376.95,237.66,377.17,241.81,383.74,242.82z M258.08,502.44c-4.49,3.02-7.31,12.32-4.52,16.49c0.99,1.48,3.53,2.37,5.48,2.61
		c1.24,0.15,3.31-1.05,3.94-2.22C264.88,515.74,261.62,505.29,258.08,502.44z M265.56,512.05c0.02,0,0.04,0,0.05,0
		c0,1.82-0.38,3.75,0.13,5.41c0.36,1.17,1.85,2.69,2.97,2.8c4.7,0.49,7.05-2.27,6.52-7.12c-0.22-1.97,0.12-4.25-0.78-5.83
		c-1.2-2.11-3.37-3.68-5.12-5.48c-1.26,2.08-2.72,4.08-3.69,6.29C265.16,509.23,265.56,510.73,265.56,512.05z M182.93,281.47
		c-0.13-0.64-0.25-1.27-0.38-1.91c-2.18,0.1-4.84-0.56-6.45,0.44c-4.35,2.71-8.38,5.98-12.29,9.32c-1.71,1.47-2.81,3.65-4.19,5.51
		c0.46,0.45,0.91,0.9,1.37,1.35C171.54,296.12,175.74,286.54,182.93,281.47z M239.77,510.47c0.29,0.17,0.57,0.34,0.86,0.51
		c0.06,1.32-0.4,3.23,0.29,3.83c1.91,1.66,4.31,2.78,6.51,4.12c0.93-1.62,2.23-3.14,2.69-4.89c0.57-2.2,0.77-4.61,0.53-6.86
		c-0.18-1.74-0.87-3.94-2.13-4.87c-0.89-0.66-3.75-0.1-4.59,0.88C242.15,505.28,241.11,508.01,239.77,510.47z M248.18,255.41
		c-11.1,4.35-18.42,12.66-26.83,19.47C236.01,271.45,248.21,262.87,248.18,255.41z M194.44,227.93c0.6-0.29,1.19-0.58,1.79-0.87
		c-2.86-6.76-5.56-13.59-8.73-20.2c-0.62-1.3-3.07-1.72-4.68-2.54c-0.23,1.68-0.99,3.5-0.61,5.03
		C184.12,216.95,188.7,222.86,194.44,227.93z M362.25,240.21c-8.17-6.5-19.11,2.27-22.3,15.22c1.73-2.54,3.19-4.68,4.65-6.83
		c-0.25,2.95-1.21,5.41-2.42,7.74c-1.14,2.2-2.53,4.28-4.15,6.97c6.32-1.56,7.68-6.04,9.12-10.55
		C350.06,243.61,353.32,240.86,362.25,240.21z M397.37,247.04c12.8-4.01,16.34-5.33,19.03-25.43
		C410.68,229.24,403.82,238.41,397.37,247.04z M426.93,436.91c-1.91-2.76-3.7-5.51-5.66-8.14c-0.81-1.08-2.49-2.89-2.85-2.7
		c-1.45,0.8-3.66,2.36-3.56,3.44c0.46,4.73,1.64,9.39,2.73,14.94C421.97,440.92,425.22,438.29,426.93,436.91z M325.76,224.18
		c11.99-1.4,21.61-5.74,25.03-17.88c0.08-0.28-0.03-0.61-0.07-1.17c-1.35-0.18-2.73-0.35-3.13-0.41c-1.76,3.19-2.64,6.27-4.66,8.07
		c-2.86,2.56-6.61,4.12-9.89,6.23C330.55,220.64,328.18,222.45,325.76,224.18z M150.52,291.71c9.58-2.36,15.66-8.94,23.63-14.92
		C156.3,280.35,151.47,283.37,150.52,291.71z M281,502.66c-5.8,3.21-2.75,8.45-3.35,12.69c-0.16,1.12,1.94,3.7,2.52,3.57
		c2-0.46,5.35-1.79,5.39-2.88C285.71,511.3,286.41,505.98,281,502.66z M288.6,516.67c0.48,0.43,0.97,0.87,1.45,1.3
		c2.34-1.97,6.5-3.82,6.63-5.92c0.23-3.76,0.78-8.81-4.25-11.35C287.09,505.24,288.04,511,288.6,516.67z M213.71,317.42
		c4.32-5.85,3.33-20.72-1.4-28.71C212.18,298.41,209.76,307.63,213.71,317.42z M227.89,510.82c0-4.18,0.27-8.39-0.09-12.54
		c-0.25-2.89-2.32-3.35-4.68-1.87c-3.55,2.23-2.81,5.76-2.19,8.9C221.51,508.33,222.55,511.51,227.89,510.82z M359.56,258.13
		c0.63,0.01,1.25,0.03,1.88,0.04c0.22-4.08,0.58-8.16,0.51-12.23c-0.01-0.8-2.06-2.42-2.56-2.21c-2.17,0.91-4.27,2.18-6.06,3.71
		c-0.58,0.5-0.62,2.53-0.08,3.26C355.17,253.31,357.43,255.67,359.56,258.13z M265,527.45c0.43,3.58,0.54,6.85,1.33,9.95
		c0.33,1.28,2.11,2.2,3.22,3.28c0.9-1.06,2.34-2.01,2.6-3.2c0.74-3.43,1-6.95,1.49-10.76C270.47,526.99,268.22,527.18,265,527.45z
		 M167.25,275.73c0.23-0.79,0.46-1.59,0.69-2.38c-1.35-0.96-2.59-2.48-4.06-2.75c-3.4-0.64-6.92-0.95-10.37-0.81
		c-1.43,0.06-2.79,1.6-4.19,2.47c1.39,1.16,2.7,3.18,4.19,3.32C158.06,276.01,162.67,275.73,167.25,275.73z M235.91,500.19
		c-4.63,1.84-6.33,5.17-5.22,10.56c0.7,3.4,2.73,5.06,6.29,4.43C239.17,506.52,238.97,503.94,235.91,500.19z M469.9,488.77
		c5.48-15.56,4.95-19.33-3.5-25.83c0.78,4.23,1.67,8.16,2.2,12.14C469.18,479.32,469.43,483.61,469.9,488.77z M395.55,475.46
		c2.18,1.5,4.68,3.01,4.66-0.75c-0.03-5.96,3.16-4.97,6.82-4.19c0.96,0.2,2.06-0.08,3.03-0.37c0.19-0.06,0.32-1.54,0.04-1.73
		c-0.87-0.6-1.93-1.14-2.96-1.26c-2.42-0.28-4.86-0.31-7.29-0.44c0.02-0.32,0.05-0.64,0.07-0.96c-2.61,0.51-5.22,1.02-8.56,1.67
		c-0.36,1.16-0.89,2.9-1.5,4.86c3.18-0.84,5.56-1.46,7.95-2.09c0.17,0.44,0.35,0.89,0.52,1.33
		C397.53,472.69,396.71,473.84,395.55,475.46z M210.47,293.51c-0.56-0.2-1.11-0.4-1.67-0.6c-2.2,6-4.58,11.93-6.45,18.03
		c-0.44,1.44,0.9,3.41,1.42,5.14c1.15-1.19,3.03-2.23,3.33-3.61C208.47,306.2,209.39,299.84,210.47,293.51z M240.67,270.44
		c5.2,0.86,9.35,1.84,13.53,2.08c1.56,0.09,3.22-1.54,4.84-2.38c-1.26-1.33-2.27-3.29-3.81-3.88
		C250.16,264.31,245.58,265.56,240.67,270.44z M254.67,533.53c-1.43-2.68-1.99-5.51-3.65-6.49c-3.52-2.08-6.37,0.88-5.27,6.09
		c0.55,2.6,3.04,4.8,4.66,7.18C251.75,538.16,253.1,536.02,254.67,533.53z M385.91,247.58c6.28,1.04,22.17-14.19,24.6-21.58
		C402.86,232.71,394.68,239.89,385.91,247.58z M254.98,527.24c0.57,3.86,0.88,7.23,1.68,10.49c0.25,1.01,1.78,2.34,2.77,2.37
		c0.92,0.03,2.49-1.3,2.75-2.3c0.76-2.91,1.01-5.96,1.48-9.09C260.52,528.19,258.27,527.8,254.98,527.24z M422.12,524.64
		c-3.68-3.35-7.37-6.7-11.06-10.06c-0.8,3.32-1.39,6.95,0.11,9.17C413.98,527.88,418.23,527.54,422.12,524.64z M183.24,474.99
		c2.8,6.21,5.48,12.15,8.16,18.1c0.21-0.1,0.42-0.19,0.63-0.29c-2.88-7.44-5.76-14.89-8.3-21.45c-5.03,0.35-9.17,0.64-13.85,0.97
		C173.98,475.44,177.81,477.94,183.24,474.99z M249.2,262.88c7.18,0.43,12.59-2.11,17.01-7.58
		C260.48,252.93,253.66,256.01,249.2,262.88z M324.8,266.57c-6.68-4.17-13.7-8.56-20.72-12.94
		C308.72,262.27,314.88,268.24,324.8,266.57z M392.98,338.09c6.28,3.58,11.51-1.43,17.26-3.77c-1.07-4.4-4.08-6.4-9.69-7.03
		c0.68,1.87,2.57,5.6,2.07,5.94C399.66,335.31,396.16,336.6,392.98,338.09z M222.62,530.36c5.2-8.03,2.79-13.61-6.42-16.37
		c0.69,3.28,1.31,6.28,2.01,9.59c0.95-0.74,1.5-1.17,2.33-1.82C221.19,524.48,221.8,526.97,222.62,530.36z M453.78,454.09
		c2.71-8.14,1.79-11.11-4.9-16.75c-1.15,1.29-2.3,2.59-2.66,3C448.93,445.29,451.23,449.46,453.78,454.09z M180.59,264.48
		c-7.25-2.8-13.19-5.09-19.13-7.38c-0.19,0.5-0.38,1-0.58,1.5C165.24,264.8,171.21,267.01,180.59,264.48z M179.57,491.91
		c-7.11-8.98-11.86-19.19-21.92-26.15c0.11,1.92-0.23,3.26,0.28,3.79C164.92,476.92,172.04,484.17,179.57,491.91z M304.22,498.85
		c-7.08,3.82-5.38,9.12-4.92,14.74c2.62-2,4.75-3.63,7.17-5.49C305.77,505.23,305.05,502.26,304.22,498.85z M172.08,296.99
		c8.08-2.58,13.55-8.11,17.79-15.08C181.9,284.53,178.35,292.41,172.08,296.99z M227.37,302.07c-2.24,3.77,0.47,8.7,6.22,11.86
		C237.08,309.42,235.34,305.97,227.37,302.07z M390.27,475.41c2.46,3.47,4.61,6.5,6.77,9.53c3.2-2.62,6.52-5.13,9.48-8
		c0.44-0.43-0.8-2.59-1.11-3.51c-2.11,2.4-3.68,5.67-5.24,5.66C397.34,479.09,394.52,477.13,390.27,475.41z M215.4,287.4
		c2.32,6.09,2.45,11.89,7.18,15.86C226.22,298.05,224.02,292.94,215.4,287.4z M274.93,525.98c1.23,4.44-0.64,8.94,2.71,12.25
		c0.65,0.05,1.3,0.09,1.96,0.14c0.73-3.9,1.47-7.81,2.23-11.91C279.16,526.28,277.52,526.16,274.93,525.98z M450.37,517.99
		c-2.12-3.02-3.76-5.38-5.63-8.05c-2.51,4.14-4.35,7.19-6.63,10.95C442.34,519.89,445.48,519.14,450.37,517.99z M339.93,202.54
		c0.26-0.32,0.52-0.65,0.78-0.97c-3.56-1.21-7.14-3.42-10.67-3.34c-3.4,0.08-6.74,2.53-10.99,4.31
		C326.9,202.54,333.41,202.54,339.93,202.54z M391.98,250.78c9.36,4.61,12.92,3.56,15.64-3.66
		C402.74,248.26,397.86,249.4,391.98,250.78z M289.1,523.57c-3.21,1.4-4.8,2.09-6.96,3.04c1.39,3.37,2.64,6.37,3.88,9.38
		c0.69-0.1,1.38-0.2,2.06-0.3C288.39,532.04,288.7,528.38,289.1,523.57z M411.3,327.81c-3.03-5.35-6.21-8.31-11.18-8.09
		c-1.32,0.06-2.57,1.92-3.86,2.96c3.07,0.82,5.23,1.29,7.31,1.99C405.73,325.41,407.81,326.38,411.3,327.81z M152.82,261.97
		c-0.25,0.66-0.51,1.33-0.76,1.99c4.82,1.83,9.64,3.66,14.46,5.49c0.19-0.47,0.37-0.94,0.56-1.41
		C162.71,265.12,159.28,260,152.82,261.97z M318.79,214.27c-0.53-0.5-1.06-1.01-1.59-1.51c-1.82,1.02-5.2,2.1-5.17,3.06
		c0.12,3.88,1.3,7.73,2.09,11.6c0.6-0.07,1.2-0.14,1.81-0.21C316.41,222.81,312.5,217.59,318.79,214.27z M200.69,282.04
		c-5.68-1.51-10.25,2.25-11.43,9.59C193.46,288.11,196.86,285.25,200.69,282.04z M332.1,276.34c0.83,0.01,1.66,0.01,2.49,0.02
		c0.57-2.9,1.15-5.79,1.93-9.74c-2.82,0.46-4.56,0.74-6.29,1.02C330.85,270.54,331.48,273.44,332.1,276.34z M378.13,217.79
		c-0.68,4.56-1.49,10.05-2.39,16.1c2.6-5.1,4.96-9.7,6.94-13.6C380.91,219.31,379.14,218.34,378.13,217.79z M372.65,234.9
		c-2.26,1.58-4.55,3.17-7.05,4.92c0.39,1.43,0.87,3.21,1.35,5.02C371.24,242.58,375.31,240.56,372.65,234.9z M353.41,500.23
		c4.64,0,8.67,0,12.69,0C362.25,493.71,358.48,493.45,353.41,500.23z M307.13,507.07c7.19-1.25,7.97-3.2,3.99-10.53
		C309.88,499.82,308.64,503.09,307.13,507.07z M227.46,295.73c-0.47,0.63-0.95,1.26-1.42,1.88c3.56,2.62,7.13,5.23,10.69,7.85
		c0.46-0.6,0.92-1.2,1.37-1.8C236.28,298.86,231.46,297.81,227.46,295.73z M328.2,230.28c3.87-1.66,7.89-3.39,11.91-5.11
		c-0.19-0.43-0.39-0.87-0.58-1.3c-3.27,1.3-6.57,2.52-9.79,3.91c-5.35,2.31-5.79,5.42-0.5,10.22
		C328.86,235.16,328.6,233.26,328.2,230.28z M309.08,521.98c0.47,0.15,0.95,0.3,1.42,0.44c1.19-4.05,2.37-8.09,3.76-12.81
		C307.09,514.2,306.78,515.04,309.08,521.98z M295.44,521.74c-5.98,1.41-6.25,4.99-0.69,11.25
		C295.02,528.61,295.22,525.32,295.44,521.74z M370.04,348.03c1.77,7.51,4.44,9.76,11.8,10.72
		C378.12,355.36,374.49,352.07,370.04,348.03z M216.8,492.83c-6.19,4.86,0.16,7.69-0.12,11.61c0.59-0.09,1.18-0.18,1.77-0.28
		C217.9,500.38,217.35,496.61,216.8,492.83z M223.9,291.83c4.41,1.77,8.07,3.24,12.8,5.13C233.62,290.95,231.06,290.03,223.9,291.83
		z M299.57,528.41c0.79-2.99,1.57-5.99,2.61-9.94C296.09,521.44,296.02,521.67,299.57,528.41z M345.36,203.51
		c-0.4-0.29-0.81-0.58-1.21-0.87c-3.04,3.4-6.08,6.81-9.12,10.21c0.62,0.49,1.24,0.97,1.86,1.46
		C339.72,210.71,342.54,207.11,345.36,203.51z M184.34,263.54c-8.52-6.63-13.44-8.84-18.04-7.83
		C172.34,258.33,177.72,260.66,184.34,263.54z M357.75,553.75c3.69,0.39,6.16,4.36,7.74,2.42c-1.15-2.25-2.06-4.02-2.88-5.63
		C361.59,551.21,360.2,552.13,357.75,553.75z M402.47,531.5c1.69,0.57,3.38,1.13,6.35,2.13c-1.43-2.13-2.02-3-2.91-4.31
		c2.26-0.6,4.16-1.1,6.92-1.83C407.69,524.66,405.47,528.95,402.47,531.5z M220.39,307.84c-2.04,8.18-1.76,9.08,3.06,10.21
		C222.46,314.77,221.59,311.85,220.39,307.84z M228.94,318.1c0.48-0.44,0.97-0.87,1.45-1.31c-1.92-2.56-3.84-5.12-5.77-7.68
		C225.89,312.26,223.83,317.72,228.94,318.1z M306.45,517.12c-0.61-0.16-1.23-0.33-1.84-0.49c-4.14,2.09-1.37,4.94,1.03,7.76
		C305.91,521.97,306.18,519.55,306.45,517.12z M336.65,278.94c-0.82,0.18-1.63,0.35-2.45,0.53c1.08,3.25,2.17,6.49,3.25,9.74
		c0.6-0.16,1.2-0.32,1.8-0.48C338.39,285.47,337.52,282.21,336.65,278.94z"/>
	<path class="st0" d="M286.46,455.01c-0.97,5.9-3.93,7.27-10.5,4.87c-6.6-2.41-6.85-2.32-6.71,4.7c0.08,3.66,0.67,7.31,1.03,10.96
		c0.62,0.06,1.25,0.11,1.87,0.17c0.66-1.83,1.57-3.61,1.94-5.49c0.77-3.94,2.73-6.43,6.99-6.3c5.1,0.15,7.28-2.6,8.51-7.23
		c3.65-13.77,2.72-27.32-1.33-40.79c-0.41-1.36-1.2-3.12-2.32-3.68c-7.61-3.76-7.82-10.87-8.46-17.81c-0.34-3.64-0.84-7.3-0.7-10.92
		c0.13-3.49,1-6.96,2.38-10.52c5.68,5.12,9.6,10.75,9.92,18.31c0.14,3.49,0.37,6.97,0.44,10.46c0.14,6.46,4.02,9.65,9.58,11.93
		c2.94,1.21,6.28,2.87,8.01,5.33c8.79,12.53,34.51,12.31,43.42,4.54c1.9-1.66,3.16-4.05,4.78-6.18c4.15,1.83,4.72,3.84,1.4,7.49
		c-6.55,7.21-13.99,11.93-24.26,7.71c-1.37-0.56-2.88-0.79-4.34-1.11c-0.27-0.06-0.6,0.18-1.48,0.46c8.73,3.5,16.61,7.98,25.76,1.61
		c4-2.79,8.83,0.58,8.94,5.58c0.12,5.11,0.03,10.23,0.03,15.79c-2.1-0.28-4.5-0.57-6.89-0.94c-9.23-1.42-11.9,1.23-10.71,10.49
		c0.54,4.19,0.74,8.41,1.22,12.61c0.14,1.28,0.3,2.86,1.1,3.7c3.61,3.78,1.57,6.33-1.34,9.22c-5.83,5.8-8.43,13.19-9.13,21.44
		c3.88-7.11,7.76-14.21,11.76-21.53c2.57,1.46,4.12,2.34,5.44,3.09c-3.73,7.21-7.42,14.33-11.25,21.71
		c-7.69-0.41-12.63,2.89-15.21,10.95c-1.09,3.41-1.61,7.01-2.71,10.41c-2.44,7.55-0.17,13.29,5.6,17.08
		c-5.02,7.07-9.99,14.08-14.96,21.08c-0.21-0.1-0.42-0.21-0.64-0.31c2.29-7.66,4.59-15.31,6.88-22.97
		c-0.41-0.14-0.82-0.28-1.24-0.42c-2.62,6.78-5.79,13.4-7.73,20.37c-2.67,9.61-10.93,13.4-17.92,18.47
		c-1.66,1.2-4.97,0.99-7.23,0.37c-14.74-4.03-29.57-3.88-44.61-2.18c-17.63,1.98-25.94-4.19-30.39-21.74
		c-2.48-9.77-4.82-19.58-7.23-29.37c-0.59,0.12-1.17,0.23-1.76,0.35c0.92,5.49,1.85,10.98,2.74,16.48
		c0.9,5.53,1.75,11.06,2.63,16.59c-0.42,0.12-0.84,0.24-1.25,0.36c-2.48-10.21-4.95-20.43-7.43-30.64
		c-0.34,0.06-0.67,0.12-1.01,0.17c0.68,4.63,1.36,9.27,2.04,13.9c-0.33,0.2-0.65,0.39-0.98,0.59c-1.21-2.24-2.91-4.35-3.54-6.74
		c-3.96-15.04-7.68-30.14-11.28-45.32c3.2,8.62,6.4,17.24,9.61,25.85c0.47-0.11,0.94-0.22,1.41-0.33
		c-1.95-10.15-3.89-20.3-5.84-30.45c0.26-0.1,0.51-0.19,0.77-0.29c4.53,7.65,9.05,15.3,13.58,22.96c0.31-0.16,0.63-0.31,0.94-0.47
		c-1.96-3.92-3.92-7.84-5.89-11.76c0.19-0.11,0.39-0.22,0.58-0.33c4.73,7.12,9.46,14.24,13.93,20.97c1.87,0.19,4.08-0.22,4.73,0.6
		c3.64,4.6,9.11,6.24,13.95,8.59c5.48,2.66,11.51,4.3,17.43,5.86c1.53,0.4,3.58-1.15,5.81-1.96c2.55,2.14,5.62,4.74,8.37-0.43
		c2.38,1.29,4.49,2.43,6.6,3.57c0.01,0.3,0.02,0.6,0.03,0.9c-9.12-0.49-18.52,0.21-27.3-1.81c-8.79-2.02-16.95-6.74-25.73-9.67
		c3.97,2.61,7.68,5.8,11.97,7.68c4.87,2.13,10.18,3.57,15.45,4.43c5.85,0.96,11.87,1.33,17.8,1.21c5.65-0.11,11.38-0.73,16.88-1.96
		c7.2-1.62,14.43-3.26,20.35-8.51c2.92-2.59,7.11-3.75,10.73-5.55c1.41-0.7,2.83-1.37,4.25-2.06c-0.23-0.54-0.46-1.09-0.69-1.63
		c-4.99,2.03-10.29,3.55-14.89,6.24c-4.92,2.88-8.74,7.03-15.26,7.53c-3.32,0.25-6.44,2.7-10.17-0.5c4.09,0.78,8.01,1.22,9.38-4.08
		c3.28,2.18,5.06,1.45,8.2-0.8c6.51-4.67,14.39-7.4,21.53-11.25c2.56-1.38,4.6-3.72,7.64-5.3c-0.99,2.4-1.98,4.8-2.98,7.21
		c0.22,0.35,0.45,0.71,0.67,1.06c1.65-1.24,3.74-2.18,4.85-3.8c1.37-2.01,1.95-4.56,2.83-6.89c4.7-12.41,9.34-24.84,14.1-37.23
		c3.01-7.84,2.81-9.19-2.61-12.68c-4.87-3.14-10.65-2.39-14.85,2.2c-4.56,5-6.51,11.12-6.96,17.77c-0.11,1.64-0.2,3.29-0.31,5.21
		c-4.3,0.34-7.24,4.62-12.28,3.11c-1.33-0.4-3.64,2.44-5.87,4.06c-4.58-4.86-7.67-1.63-10.26,2.57c-6.36-3.2-6.36-3.2-11.44,0.04
		c-3.75-3.82-7.79-5.93-11.82,0.34c-3.29-3.86-6.67-5.01-10.43-1.06c-3.91-3.29-7.87-5.03-11.94-0.17c-2.67-4.12-5.63-6.11-10-2.55
		c-2.02-6.28-5.96-6.53-10.73-4.07c-2.38-2.03-2.56-7.52-6.87-4.91c0-5.99,0.68-12.24-0.18-18.27c-0.99-6.89-6.83-11.21-13.69-10.29
		c-6.17,0.83-12.37,2.44-18.18,4.68c-6.28,2.41-15.99,0.7-20.7-4.12c-4.61-4.72-9.59-9.12-14.69-13.33
		c-3.85-3.18-7.48-15.3-5.08-19.78c0.78-1.47,2.82-2.27,4.28-3.37c0.29,0.34,0.57,0.69,0.86,1.03c-1.15,1.21-2.3,2.42-4.44,4.67
		c2.54,0.18,4.23,0.31,5.92,0.43c-3.05,5.54-2.73,10.31,0.68,13.26c0.5-3.44,1.04-7.05,1.57-10.67c0.64,0.1,1.28,0.2,1.92,0.31
		c-0.23,2.07-0.92,4.21-0.59,6.18c0.5,2.97,0.86,6.72,2.79,8.55c5.08,4.81,10.97,8.77,16.92,13.36c-0.78-5.23-3.02-9.36-6.89-12.38
		c-3.72-2.91-5.27-6.58-5.71-11.11c-1.15-11.67-2.48-23.31-3.9-36.4c-0.49,2.93-0.93,4.59-1.03,6.28c-0.28,4.64,0.08,9.4-0.81,13.91
		c-0.59,2.96-2.91,5.59-4.45,8.36c0.43-6.7,0.72-13.42,1.35-20.11c0.36-3.86,0.8-7.83,2.03-11.47c3.07-9.13,6.85-18.03,9.84-27.18
		c1.05-3.21,0.91-6.89,0.86-10.34c-0.04-3.14-0.55-6.3-1.1-9.4c-2.06-11.55-4.23-23.09-7.54-34.52c0.66,6.55,0.59,13.28,2.13,19.61
		c3.38,13.84,1.19,26.29-7.06,37.84c-1.22,1.71-1.85,3.85-2.62,5.52c-9.31-26.28-7.12-51.98,5.16-77.01
		c4.73,0.47,6.18,2.82,6.48,7.75c0.68,11.26,2.42,22.45,3.79,33.66c0.13,1.09,0.71,2.13,1.54,4.51c-0.68-13.61-1.09-25.8-1.99-37.95
		c-0.36-4.82,1.38-5.9,5.91-6.77c6.24-1.21,12.33-3.7,18.16-6.35c5.11-2.32,9.78-5.61,15.2-8.81c-1.56,5.76-2.88,10.93-4.36,16.07
		c-2.57,8.91-0.44,16.64,7.66,21.01c5.71,3.08,12.62,5.63,18.96,5.55c12.52-0.16,19.14-7.36,21.56-20.2
		c0.22-1.15,1.52-2.06,2.03-3.21c1.09-2.48,2.88-5.09,2.75-7.57c-0.16-3.08,0.8-4.68,3.2-5.98c2.05-1.1,4.04-2.33,6.14-3.35
		c4.77-2.33,8.4-5.41,8.18-11.34c-0.03-0.79,0.13-1.9,0.65-2.35c7.1-6.15,10.32-15.63,18.48-20.98c2.76-1.81,4.54-5.26,6.46-8.17
		c2.89-4.37,5.51-8.92,8.11-13.18c4.14,4.97,9.42,9.26,10.35,17.08c-3.89-2.38-7.79-4.77-11.69-7.15c-0.39,0.13-0.77,0.27-1.16,0.4
		c1.18,2.98,2.38,5.95,3.53,8.95c1.75,4.56,3.88,9.02,5.09,13.72c1.63,6.29,5,9.93,11.96,9.56c0.16,2.84,0.29,5.21,0.46,8.1
		c6.53-2.21,8.15,2.29,9.52,6.29c1.35,3.92,3.9,9.49,2.28,11.95c-3.32,5.04-8.5,9.47-15.39,10.04c-2.65,0.22-5.34,0.26-7.99,0.02
		c-4.01-0.35-5.87,1.05-5.73,5.28c0.19,5.29-0.71,10.71,0.16,15.85c0.71,4.19,2.87,8.35,5.21,12c2.68,4.18,2.26,8.36-1.17,11.75
		c-2.62,2.6-4.3,6.16-6.33,9.34c-0.97,1.52-1.77,3.16-3.66,4.2c1.05-2.42,2.1-4.84,3.39-7.81c-7.93,1.94-5.97,10.45-10.79,13.92
		c-8.4-11.09-8.4-11.09-12.89-6.84c-0.42-0.5-0.79-1.02-1.24-1.46c-2.53-2.39-5.07-4.77-7.61-7.14c-2.76,3.42-6.01,6.57-8.09,10.36
		c-1.33,2.42-0.95,5.78-1.29,8.37c-1.31-3.27-2.75-6.85-4.71-11.72c-3.11,3.59-5.32,6.13-7.66,8.82c-2.53-3.98-5.04-8.16-7.78-12.19
		c-4.38-6.45-10.43-10.04-18.35-10.51c-3.14-0.18-6.28-0.8-9.36-1.51c-14.64-3.37-26.58,1.77-36.56,12.01
		c-2.75,2.82-7.55,6.16-3.02,11.47c0.35,0.41-0.49,1.83-0.78,2.78c-7.62,24.83,8.42,46.91,34.48,47.41
		c3.16,0.06,6.33-0.13,9.48-0.39c4.66-0.39,7.82-2.64,10.16-6.93c1.35-2.46,4.46-3.96,6.79-5.87c2.34-1.92,5.39-3.38,6.91-5.8
		c3.07-4.9,5.53-10.21,7.78-15.55c0.98-2.32,0.54-5.19,1.26-7.67c1.16-3.98,2.76-7.84,5.06-11.61c3.79,5.55,5.75,11.39,4,17.4
		c-2.08,7.14-4.78,14.24-11.56,18.7c-1.04,0.69-2.11,1.87-2.44,3.02c-2.44,8.59-5.45,17.03-2.09,26.26
		c1.62,4.45,1.45,9.52,2.67,14.15c0.82,3.13,2.31,6.23,4.16,8.89c0.91,1.3,3.38,2.3,5.03,2.15c8.22-0.74,9.49-0.05,11.74,7.68
		c0.35,1.21,0.81,2.39,1.22,3.58c0.57,0.02,1.14,0.04,1.71,0.07c0.3-3.38,0.75-6.75,0.84-10.14c0.07-2.31-0.2-4.66-0.6-6.94
		c-0.86-4.86-1.94-4.98-6.03-2.35c-2.82,1.81-6.25,2.83-9.54,3.68c-0.82,0.21-2.74-1.36-3.16-2.48c-5.07-13.33-9.09-26.82-3.8-41.1
		c0.56-1.51,1.47-3.15,2.7-4.12c10.39-8.19,12.09-20.21,13.88-31.97c1.28-8.38,0.96-8.92,7.6-15.42c9.93,9.28,5.97,22.04,8.23,33.48
		c-1.17-0.87-2.34-1.74-3.95-2.94c1.21,5.67,3.58,10.09,7.91,13.24c5.05,3.67,7.96,8.57,8.34,14.69c0.5,7.95,0.7,15.92,0.69,23.89
		c0,2.01-1.25,4.02-1.93,6.03c0.31-3.47,0.7-6.94,0.91-10.42c0.81-13.33-2.68-25.05-11.72-35.37c-4.12-4.71-7.42-10.4-7.05-17.57
		c0.2-3.93-1.52-7.97-2.62-13.13c-0.59,5.43-0.68,9.62-1.58,13.64c-1.49,6.66-3.46,13.2-9.07,17.88
		c-13.89,11.58-16.54,28.65-6.92,44.18c3.5,5.65,5.74,5.64,9.31,0.12c4.44-6.86,5.12-14.61,5.77-22.43
		c0.36-4.34,1.12-8.65,1.7-12.98c1.19,1.94,1.13,3.74,1.21,5.53c0.35,8.46,0.57,16.94,1.22,25.38c0.14,1.84,1.39,4.51,2.86,5.16
		c3.16,1.41,6.77,2.2,10.24,2.36C282.51,457.59,284.5,455.9,286.46,455.01z M225.05,430.06c-39.68,9.81-63.04-7.43-63.1-41.97
		c-0.76,2.03-1.37,4.14-1.6,6.29c-2.14,20.19,16.23,38.8,33.87,40.99c5.7,0.71,11.62-0.48,17.35,0.08
		C216.9,435.96,220.93,434.38,225.05,430.06z M240.86,556.89c0.18-0.54,0.36-1.08,0.55-1.62c2.6,0.83,5.15,2.07,7.81,2.38
		c2.59,0.3,5.29-0.35,7.95-0.58c-0.04-0.59-0.07-1.17-0.11-1.76c-7.84-1.83-15.69-3.66-23.56-5.5c0.06,0.6,0.14,1.32,0.14,1.3
		c-15.06-2.23-20.06-16.09-29.07-25.78c3.77,7.64,7.98,14.91,12.57,21.94c1.06,1.61,3.33,2.59,5.23,3.46
		c3.39,1.56,6.97,2.71,10.38,4.22c4.36,1.94,8.64,4.08,12.95,6.13c0.21-0.45,0.42-0.91,0.63-1.36
		C244.51,558.77,242.68,557.83,240.86,556.89z M231.54,490.84c1.1,1.26,2.36,4.09,3.98,4.31c6.04,0.81,12.41,1.82,18.25,0.7
		c4.62-0.89,7.57,0.03,9.4,1.87c4.59-0.83,8.06-1.45,11.53-2.08c-2.53-0.92-5.28-1.18-8.03-1.24c-1.09-0.02-2.65,0.95-3.22,0.5
		c-5.24-4.13-11.15,0.12-16.68-1.58C242.01,491.86,236.87,491.66,231.54,490.84z M216.51,457.84c0.48-0.09,0.96-0.18,1.44-0.27
		c-1.32-4.35-2.39-8.79-4.03-13.01c-1.32-3.39-3.71-6.42-7.95-5.03c-4.6,1.51-2.34,5.31-2.4,8.46
		C213.86,443.86,212.83,453.85,216.51,457.84z M194.63,345.11c-13.24-2.5-28.88,6.94-27.49,17.98
		C173.96,352.41,182.96,346.7,194.63,345.11z M270.6,554.52c9.21,5.19,17.72-0.12,26.32-2.49c3.14-0.87,5.84-3.61,8.5-5.79
		c0.74-0.6,0.63-2.23,0.91-3.39c-6.69,3.14-12.33,7.1-18.11,10.84c-1.1,0.71-2.75,0.77-4.15,0.8
		C279.54,554.58,275.01,554.52,270.6,554.52z M211.56,463.35c0,0.83-0.09,1.19,0.02,1.46c0.19,0.45,0.45,0.9,0.78,1.26
		c3.79,4.16,5.24,8.9,4.84,14.62c-0.19,2.7,1.46,5.61,2.63,8.27c0.25,0.58,2.03,0.49,2.07,0.49c-0.59-4.14-1.49-7.69-1.51-11.24
		C220.35,471.13,217.61,465.99,211.56,463.35z M293.51,419.55c1.95,13.11,4.89,26.17,0.78,39.81
		C300.02,452.52,299.63,430.26,293.51,419.55z M311.55,488.85c-0.03-0.38-0.07-0.77-0.1-1.15c-10.31,2.61-20.62,5.21-30.93,7.82
		c2.53,0.98,6.16,2.39,7.47,1.22c2.4-2.14,4.13-2.77,6.94-1.51c0.71,0.32,1.88-0.06,2.72-0.41
		C302.3,492.88,306.92,490.85,311.55,488.85z M258.51,468.15c-5.62,3.63-9.12,11.52-8.8,18.03c1.99-4.63,3.94-9.17,5.89-13.71
		c0.49,0.1,0.97,0.21,1.46,0.31c0.61,4.08,1.23,8.15,1.84,12.23c0.45-0.07,0.89-0.15,1.34-0.22
		C259.69,479.52,259.15,474.26,258.51,468.15z M162.4,440.34c1.64-4.27,3-7.21,3.82-10.3c0.32-1.18-0.19-3.13-1.06-3.91
		c-0.86-0.77-2.68-0.77-4.01-0.59c-0.56,0.08-1.44,1.56-1.32,2.27C160.45,431.61,161.34,435.37,162.4,440.34z M299.12,343
		c-8.82,2.06-16.8,10.13-16.44,16.48C288.08,354.07,294.04,348.1,299.12,343z M297.47,459.98c4.85,7.92,9.05,14.77,13.62,22.22
		C310.83,475.26,304.02,463.86,297.47,459.98z M238.42,454.2c-6.12,8.18-10.71,17.05-12.37,27.24
		C230.17,472.36,234.29,463.28,238.42,454.2z M233.2,484.54c2.82-7.19,5.63-14.39,8.45-21.58c-0.6-0.22-1.2-0.44-1.79-0.67
		C236.45,469.23,233.33,476.27,233.2,484.54z M234.08,439.59c0.44-6.51,0.86-12.81,1.37-20.41
		C230.57,427.79,230.26,435.03,234.08,439.59z M279.75,469.67c2.96,6.22,5.77,12.14,8.84,18.58
		C288.44,478.9,285.09,471.96,279.75,469.67z M329.64,445.97c0.35-0.53,0.7-1.05,1.05-1.58c-5.43-3.66-10.86-7.33-16.29-10.99
		c-0.33,0.5-0.66,1-0.99,1.5C318.81,438.58,324.23,442.28,329.64,445.97z M305.14,573.29c0.69-0.12,1.37-0.23,2.06-0.35
		c-1.06-5.6-2.13-11.19-3.19-16.79c-0.65,0.11-1.3,0.21-1.95,0.32C303.09,562.07,304.12,567.68,305.14,573.29z M277,492
		c0.65-0.03,1.3-0.05,1.94-0.08c-0.73-5.16-1.46-10.33-2.18-15.49c-0.55,0.07-1.1,0.15-1.64,0.22
		C275.74,481.77,276.37,486.88,277,492z"/>
	<path class="st1" d="M430.29,390.36c1.49,0.22,3.46,1.16,4.38,0.54c3.27-2.21,6.76-4.51,9.14-7.57
		c9.94-12.79,21.22-23.24,38.36-24.93c0.87-0.09,1.69-0.78,3.38-1.62c-4.62-0.98-8.35-1.78-12.69-2.71
		c1.52-2.94,3.09-4.99,3.65-7.29c0.62-2.53,0.37-5.28,0.39-7.94c0.02-2.6-0.67-5.34-0.05-7.76c2.1-8.27,1.4-10.96-5.89-15.19
		c-3.1-1.8-4.2-4.54-6-7.29c-3.21-4.89-7.44-10.08-12.51-12.57c-6.54-3.21-12.91-5.71-16.75-12.43c-1.89-3.32-4.76-4.88-8.82-2.4
		c-1.05,0.64-3.28-0.38-4.87-0.92c-4.02-1.38-7.92-3.14-11.99-4.35c-3.75-1.12-6.85,0.36-9.19,3.45c-0.4,0.53-0.76,1.42-1.25,1.5
		c-6.48,1.11-10.42,5.85-14.85,9.98c-1.49,1.38-3.5,2.2-5.65,3.51c-0.15-0.04-0.8-0.17-1.42-0.39c-8.8-3.08-13.16,0-13.21,9.44
		c-0.01,1.81,0.52,3.63,0.5,5.44c-0.02,2.12,0.35,4.72-0.7,6.26c-3.03,4.46-5.87,8.74-5.13,14.53c0.09,0.68-1.62,1.99-2.71,2.34
		c-3.65,1.17-3.81,3.54-3.01,6.69c1.06,4.15,1.98,8.36,2.76,12.57c1.31,7.05,4.92,12.57,10.62,16.86c5.8,4.36,11.3,9.16,17.35,13.15
		c3.23,2.13,7.24,3.24,11.05,4.28c6.37,1.75,12.76,3.28,17.91,7.6c-0.05,0.64-0.11,1.28-0.16,1.91c-5.73,0.11-11.46,0.21-17.19,0.35
		c-1.48,0.04-2.96,0.2-4.45,0.32c-1.14,0.09-2.89,0.74-3.33,0.24c-5.87-6.68-16.25-6.29-21.45-14.89c-3.15-5.2-7.42-9.87-9.87-15.66
		c-0.32-0.74-0.93-1.38-1.48-2c-9.09-10.35-10.08-12.66-11.14-26.47c5.72-2.08,8.2-7.03,8.86-12.58c0.81-6.84,3.6-12.33,9.45-17.4
		c-1.83,0.08-2.75,0.13-3.71,0.17c0.61-8.4,0.65-8.49,12.4-25.55c6.31,1.34,6.08,1.29,7.53-5.1c0.45-1.98,2.3-3.82,3.91-5.3
		c1.93-1.78,4.96-2.66,6.33-4.71c4.22-6.3,10.72-8.11,17.37-9.55c1.52-0.33,3.69,0.9,5.14,1.97c3.19,2.37,5.9,5.43,9.22,7.56
		c2.18,1.4,5.23,1.38,7.66,2.49c4,1.84,7.96,3.84,11.65,6.22c3.08,1.99,5.68,4.98,9.64,1.81c0.23-0.18,0.69-0.28,0.95-0.18
		c1.05,0.41,2.66,0.64,3,1.42c2.27,5.09,11.81,3.05,10.82,11.58c-1.59,0.28-3.32,0.58-5.25,0.92c-2.65-4.43-4.75-9.34-10.79-10.27
		c2.69,4.32,5.06,8.5,7.88,12.36c0.66,0.91,2.85,1.05,4.31,0.97c6.59-0.35,13.16-1.14,19.75-1.19c1.26-0.01,3.32,2.43,3.67,4.03
		c1.63,7.45,5.51,13.33,10.89,18.62c4.7,4.63,4.97,11.08,5.33,17.23c0.32,5.43-0.08,10.81,3.42,15.7c1.88,2.63,1.69,5.83-1.38,8.45
		c-1.19,1.01-1.78,3.38-1.71,5.09c0.33,8.24-4.38,12.04-12.35,9.67c-2.23-0.66-4.44-1.4-6.71-1.89c-8.98-1.94-16.4,0.04-22.86,7.24
		c-5.06,5.65-11.4,10.19-17.35,15c-5.43,4.39-11.46,5.88-19.29,1.89c3.4-1.26,5.97-2.21,8.54-3.17L430.29,390.36z"/>
	<path class="st1" d="M402.53,413.47c-1.18,3.94-2.34,7.89-3.54,11.83c-1.14,3.76-1.61,7.97-6.22,9.49
		c-0.28,0.09-0.61,0.43-0.67,0.71c-0.9,4.27-3.49,6-7.82,5.49c-5.44-0.65-10.79-1.53-13.32-7.24c-3.36-7.56-6.82-15.11-9.57-22.9
		c-2.21-6.25,0.55-20.52,4.47-25.31c0.53,1.93,1.22,3.38,1.27,4.86c0.14,4.12,0.23,8.26-0.08,12.37c-0.18,2.38-1.19,5.17,2.29,5.16
		c1.74,0,3.48-2.07,5.32-3.26c0.45,0.62,1.24,2.57,2.67,3.33c0.83,0.44,2.69-1.03,4.38-1.77c5.1,3.47,10.74,2.92,16.76,0.32
		c3.16-1.36,6.84-1.48,10.24-2.32c2.71-0.66,5.32-1.9,8.06-2.25c2.54-0.32,6.1-0.79,7.61,0.57c3.95,3.58,7.14,8.04,10.4,12.32
		c1.23,1.62,1.83,3.71,2.71,5.59c0.45-0.01,0.91-0.02,1.36-0.04c0.36-1.39,1-2.77,1.03-4.16c0.04-1.81-0.43-3.62-0.63-5.44
		c-0.49-4.51-1.23-9.12,4.77-11.73c0.61,0.24,1.93,0.89,3.31,1.3c2.98,0.89,4.22-0.85,5-3.39c2.09-6.81,3.56-7.13,9.11-2.16
		c0.22,0.2,0.61,0.21,1.73,0.56c0.2-2.78,0.39-5.39,0.69-9.53c2.83,1.99,5.9,3.06,6.75,5.06c0.83,1.95-0.23,5.02-1.14,7.33
		c-1.43,3.64-3.27,7.15-5.22,10.56c-3.71,6.47-5.63,14.05-12.59,18.53c-2.87,1.85-4.79,5.18-7.68,8.45
		c-1.23-0.64-3.15-1.82-5.21-2.66c-1.77-0.73-3.83-1.77-5.53-1.45c-4.67,0.87-6.96-1.68-9.44-4.89c-1.45-1.87-4.04-4.39-5.75-4.14
		c-2.26,0.33-4.27,2.98-6.19,4.84c-1.7,1.65-2.79,4.28-4.75,5.22c-3.62,1.73-5.95-0.63-5.28-4.62c0.8-4.84,1.47-9.7,2.19-14.55
		C403.56,413.52,403.04,413.49,402.53,413.47z"/>
	<path class="st1" d="M430.37,390.45c8.44-9.55,10.8-21.82,14.97-33.28c1.4-3.86,3.37-7.53,4.58-11.44
		c1.01-3.26,1.32-6.75,1.88-10.15c0.86-5.18,1.33-10.46,2.62-15.54c1.27-5.03,0.2-7.46-4.91-8.51c-0.49-0.1-1.02-0.26-1.48-0.16
		c-6.83,1.51-12.75,0.82-17.7-5.12c-1.05-1.26-5.36-0.45-7.9,0.31c-3.48,1.05-5.75,0.67-7.27-2.83c-0.51-1.17-1.38-2.66-2.44-3.03
		c-5.48-1.95-4.58-7.2-5.86-11.2c-0.23-0.7,2.05-3.09,3.35-3.25c6.39-0.79,12.84-1.23,19.28-1.43c1.27-0.04,3.09,1.21,3.79,2.37
		c3.42,5.76,8.41,9.05,14.69,11.21c11.02,3.8,14.87,12.53,15.51,23.49c0.22,3.82,1.99,7.53,2.55,11.36
		c0.36,2.46,0.07,5.11-0.45,7.56c-0.75,3.5-1.98,6.89-2.99,10.33c-0.19,0.64-0.12,1.42-0.48,1.92c-4.2,5.93-8.37,11.87-12.72,17.69
		c-2.27,3.03-4.72,5.95-7.38,8.64c-3.76,3.8-7.8,7.33-11.72,10.98C430.29,390.36,430.37,390.45,430.37,390.45z"/>
	<path class="st1" d="M315.19,358.53c-3.41-7-7.53-13.26-9.5-20.13c-1.68-5.87-0.9-12.44-1.23-19.13c2.19-0.17,3.61-0.37,5.03-0.37
		c14.11-0.04,28.44-11.33,32.01-25.08c1.54-5.94,2.93-11.98,5.24-17.63c1.14-2.79,3.8-5.73,6.52-6.97
		c6.6-3.01,10.24-8.01,12.99-14.38c1.38-3.2,3.71-6.2,6.23-8.66c3.02-2.94,6.19-2.08,9.16,0.9c3.46,3.45,7.27,6.54,10.98,9.83
		c-3.35,4.21-4.35,4.39-8.71,0.21c-2.72-2.61-5.15-5.51-8.29-8.91c-3.1,14.31-14.22,22.39-21.58,33.14
		c-1.53-0.67-3.08-1.35-5.63-2.47c8.5,8.16,8.68,17.2,7.44,27.18c-9.38-1.39-13.84,3.41-16.65,10.8c-0.61,1.59-2.08,2.9-3.3,4.2
		c-1.8,1.91-4.05,3.46-5.54,5.57c-2.22,3.15-4.75,4.99-8.75,4.43c-3.62-0.51-4.32,1.04-3.29,4.38c1.16,3.77,1.99,7.67,2.62,11.57
		C321.75,352,319.21,355.52,315.19,358.53z"/>
	<path class="st1" d="M362.33,382.5c-0.47,0.57-1.36,1.75-2.35,2.86c-1.65,1.85-3.74,5.43-4.96,5.16c-3.7-0.81-7.29-2.8-10.52-4.95
		c-2.67-1.78-4.76-4.44-7.12-6.7c-0.24-0.23-0.71-0.33-0.8-0.58c-3.01-9.13-12.92-14.88-12.25-25.98
		c0.34-5.69-0.88-11.48-1.46-17.82c5.99,1.14,8.62-3.72,12.58-7.33c4.5-4.09,7.45-8.36,9.25-14.07c1.46-4.62,5.94-4.48,10.44-4.67
		c-2.73,7.56-5.26,14.61-7.84,21.64c-0.22,0.59-0.72,1.15-1.23,1.54c-1.87,1.44-5.35,2.75-5.4,4.2c-0.16,4.71,0.19,9.73,1.73,14.15
		c2.12,6.09,3.91,12.63,10.4,16.34c1.79,1.03,2.22,4.31,3.46,6.45C358.05,375.81,359.99,378.77,362.33,382.5z"/>
	<path class="st0" d="M215.22,260.27c-0.36-7.77-0.81-15.53-0.95-23.31c-0.02-1.04,1.35-2.55,2.45-3.08
		c12.89-6.22,26.43-10.08,40.85-9.97c9.14,0.06,18.28,0.48,27.4,1.01c3.09,0.18,6.14,1.18,9.3,2.27
		c-28.75,1.72-50.45,18.12-72.65,33.78c1.05-1.53,2.1-3.06,3.16-4.59c-0.17-0.16-0.33-0.32-0.5-0.49c-0.79,0.47-1.6,0.91-2.37,1.41
		c-0.8,0.53-1.56,1.13-2.89,2.11c-0.14-2.46-0.24-4.33-0.35-6.21c-0.27-0.05-0.53-0.1-0.8-0.15c-0.67,2.48-1.33,4.97-2,7.45
		C215.65,260.44,215.43,260.35,215.22,260.27z"/>
	<path class="st2" d="M447.27,497.25c-4.08,0.29-7.24,0.51-9.67,0.68c1.08,3.51,2.34,7.62,3.61,11.72
		c-0.46,0.22-0.91,0.45-1.37,0.67c-0.8-0.72-1.6-1.43-2.63-2.36c0.21,2.63,0.37,4.72,0.65,8.22c-2.11-1.9-3.01-2.71-4.41-3.97
		c0.3,1.81,0.53,3.02,0.71,4.25c0.45,3.04-0.49,4.56-3.82,3.39c-0.53-0.18-1.47-0.55-1.56-0.4c-3.13,4.85-6.04,1.04-8.14-0.68
		c-10.12-8.28-14.36-19.65-15.96-32.22c-0.41-3.22,1.56-3.99,4-2.83c2.66,1.26,5.23,2.92,7.46,4.84c1.43,1.23,2.17,3.26,3.22,4.93
		c0.79-0.78,1.58-1.56,2.37-2.35c-3.56-3.47-7.13-6.94-10.69-10.41c0.09-0.24,0.19-0.48,0.28-0.73c4.38,2.24,8.76,4.47,13.14,6.71
		c0.19-0.29,0.37-0.58,0.56-0.87c-3.26-2.28-6.51-4.56-9.71-6.81c6.32-1.71,12.63-1.42,18.4,1.84
		C439.87,484.35,444.98,488.95,447.27,497.25z"/>
	<path class="st2" d="M373.35,507.05c-0.44,0.75-1.14,1.97-1.97,3.4c-4.64-2.53-3.17-6.37-1.55-9.05
		c4.21-6.98,10.58-11.53,18.94-14.49c-1.02,3.8-1.84,6.88-2.66,9.96c0.25,0.08,0.5,0.17,0.75,0.25c1.55-3.31,3.1-6.62,4.66-9.92
		c0.35,0.12,0.71,0.25,1.06,0.37c-0.3,1.42-0.61,2.84-1.04,4.88c1.29-1.01,2.2-1.73,3.5-2.74c0.22,2.24,0.41,4.19,0.6,6.15
		c0.23,0.02,0.45,0.04,0.68,0.06c0.55-1.81,1.1-3.63,1.65-5.44c0.24-0.02,0.48-0.04,0.71-0.07c0.56,4.16,1.12,8.31,1.68,12.47
		c0.3,0,0.61-0.01,0.91-0.01c0.21-2.78,0.42-5.56,0.72-9.5c2.26,5.82,5.21,10.4,5.6,15.19c0.4,5.01-1.4,10.29-2.8,15.3
		c-0.35,1.23-2.98,2.64-4.41,2.5c-1.11-0.11-2.05-2.48-2.95-3.91c-0.47-0.76-0.7-1.67-1.56-3.82c-0.45,3.21-0.7,5.01-1,7.18
		c-5.19-1.82-3.07-6.48-4.83-11.05c-0.7,3.25-1.1,5.07-1.49,6.89c-5.47,0.64-5.84,0.24-6.28-5.46c-2.56,0-6.37,0.83-6.92-0.16
		C373.89,513.47,373.92,510.12,373.35,507.05z"/>
	<path class="st1" d="M386.19,352.69c-1.36-0.35-2.89-0.43-4.07-1.11c-9.98-5.72-15.51-20.91-10.82-29.78
		c2.82-5.34,2.87-11.08,0.48-16.82c0.79,10.98-8.07,20.63-4.07,32.09c-2.18-5.08-4.45-10.04-1.63-15.57
		c2.82-5.53,3.55-11.32,2.17-17.42c-0.36-1.57-0.43-3.4,0.02-4.92c0.88-2.99,2.42-5,6.19-3.16c6.16,3,12.22,5.09,19.63,3.21
		c3.81-0.97,8.53,2.08,12.93,2.85c5.73,1.01,6.25,5.94,7.85,9.91c2.28,5.68,6.25,9.48,11.24,12.88c4,2.72,7.61,6.32,10.61,10.13
		c2.39,3.04,2.3,6.99,0.16,11.42c-1.33-12.06-1.33-12.06-6.1-16.01c2.06,6.6,5.77,12.64,0.46,18.52c-7.7-3.16-7.78-4.33-7.68-12.89
		c0.1-9-4.32-16.58-11.84-21.35c-5.53-3.51-12.02-5.55-18.18-8.02c-1.01-0.41-2.5,0.25-3.73,0.56c-0.43,0.11-0.8,0.97-1.11,0.92
		c-5.08-0.8-8.87,0.4-10.74,5.79c-0.71,2.04-3.11,3.6-3.51,5.62c-2.2,11.07,2.43,20.09,9.25,28.33c1.03,1.24,2.08,2.46,3.12,3.68
		C386.62,351.91,386.4,352.3,386.19,352.69z"/>
	<path class="st2" d="M442.34,446.07c1.54,1.05,3.19,2.17,4.84,3.29c-1.26,1.54-2.51,3.08-3.74,4.59c0.67,0.04,1.96-0.1,3.09,0.27
		c1.11,0.36,2.04,1.25,4.21,2.65c-3.13,0.79-4.92,1.24-7.65,1.92c2.79,0.75,5.29,0.72,6.51,1.95c1.13,1.14,0.9,3.63,1.36,6.03
		c-2.19-0.1-3.43-0.15-5.57-0.25c1.79,1.32,2.96,2.19,4.1,3.03c-0.57,4.73-2.22,6.65-7.27,4.82c-3.12-1.13-6.83-0.97-10.26-0.86
		c-5.16,0.16-10.3,0.77-15.45,1.19c-0.23-0.59-0.47-1.18-0.7-1.77c3.67-2.8,7.34-5.6,11.02-8.4c-0.15-0.27-0.3-0.54-0.45-0.81
		c-3.45,1.73-6.9,3.46-11.81,5.93c2.17-2.79,3.47-4.47,5.48-7.06c-2.26,1.08-3.58,1.71-4.9,2.33c-1.92-5.98,0.06-11.23,3.96-15.41
		c3.8-4.07,8.22-7.73,12.92-10.7c1.77-1.12,5.65-0.63,7.51,0.66C441.24,440.62,441.5,443.86,442.34,446.07z"/>
	<path class="st2" d="M384.36,465.65c0,7.07,0,12.62,0,18.32c-4.4,3.36-9.25,7.06-14.12,10.75c-0.51,0.39-1.42,1.05-1.68,0.88
		c-3.61-2.35-7.14-4.83-10.68-7.28c0.2-0.36,0.39-0.72,0.59-1.08c-0.8,0.14-1.6,0.43-2.39,0.4c-1.53-0.04-3.06-0.25-4.6-0.4
		c0.74-1.82,0.98-4.4,2.33-5.28c2.1-1.37,4.96-1.58,7.53-2.93c-2.9,0.24-5.8,0.72-8.69,0.61c-1.64-0.06-3.24-1.08-4.87-1.67
		c1.35-0.96,2.58-2.35,4.09-2.79c2.2-0.65,4.6-0.71,6.92-0.85c2.15-0.13,4.31-0.03,6.47-0.03c0.02-0.5,0.03-1,0.05-1.5
		c-4.41,0-8.82,0.2-13.21-0.1c-1.63-0.11-3.19-1.38-4.78-2.12c1.42-0.79,2.76-2.01,4.27-2.28c2.72-0.49,5.55-0.4,8.45-1.54
		c-4.33-0.47-8.67-0.94-13-1.4c0.09-0.75,0.18-1.51,0.26-2.26c4.94,0.28,9.89,0.57,14.77,0.85c-3.43-4.92-11.41-0.33-14.32-6.74
		C361.19,456.64,373.1,461.76,384.36,465.65z"/>
	<path class="st2" d="M400.26,433.83c1.98,0.95,3.49,1.96,5.16,2.39c2.15,0.55,6.17,0.2,6.36,0.98c0.98,3.99,1.7,8.32,1.13,12.33
		c-0.54,3.72-2.82,7.19-4.91,10.69c0.17-2.66,0.34-5.33,0.51-7.99c-0.31-0.06-0.62-0.11-0.93-0.17c-0.5,1.98-1.06,3.95-1.47,5.95
		c-0.38,1.85-0.59,3.73-0.88,5.6c-0.42,0.07-0.85,0.14-1.27,0.21c-1.29-3.19-2.57-6.39-3.86-9.58c-0.21,0.06-0.41,0.11-0.62,0.17
		c0,2.4,0,4.8,0,7.19c-6.78,0.35-6.78,0.35-10.1-6.14c0.36,3.5,0.64,6.16,0.95,9.11c-10.14-4.15-15.46-10.55-15.56-20.84
		c4.88,0.23,9.77,0.64,14.67,0.61c2.8-0.02,4.64-1.35,5.7-4.51C395.93,437.44,398.58,435.7,400.26,433.83z"/>
	<path class="st3" d="M326.47,543.66c1.42,0.11,2.32,0.18,3.22,0.25c0.34-0.41,0.68-0.81,1.01-1.22c-1.79-0.76-3.57-1.52-5.36-2.28
		c0.36-0.61,0.71-1.21,1.07-1.82c1.27-0.1,2.54-0.21,4.28-0.35c-4.68-4.17-4.89-6.82,2.28-6.44c-4.42-4.4-4.26-5.46,1.01-7.06
		c-0.16-1.25-0.32-2.51-0.53-4.22c1.52,0.74,2.63,1.27,3.69,1.79c0.31-0.33,0.69-0.63,0.65-0.71c-1.6-3.09,0.49-3.92,2.54-3.04
		c3.09,1.33,6.22,3.15,8.54,5.54c2.37,2.44,4.07,5.67,5.52,8.8c0.92,1.98,4.34,4.77-0.97,6.4c-1.59,0.49-2.57,2.95-3.84,4.5
		c-0.48-0.21-0.96-0.41-1.45-0.62c0.84,0.74,1.67,1.48,3.11,2.75c-2.66,0-4.66,0-6.66,0c-0.05,0.28-0.11,0.55-0.16,0.83
		c2.67,0.99,5.35,1.98,8.12,3C347.98,554.88,329.57,550.67,326.47,543.66z"/>
	<path class="st1" d="M322.2,358.46c-1.31,6.65-2.62,13.3-3.93,19.95c0.5,0.2,1,0.4,1.5,0.6c1.32-0.77,2.64-1.55,4.54-2.66
		c0.36,1.96,0.63,3.64,0.99,5.3c0.65,2.98,1.74,5.16,5.59,5.01c1.38-0.05,3.54,1.56,4.14,2.94c1.92,4.45,4.3,7.44,9.47,9.01
		c4.23,1.28,8.07,4.66,11.37,7.86c1.73,1.68,1.92,4.95,2.88,7.71c-6.52-1.29-12.29-2.19-17.91-3.65c-2.28-0.59-4.37-2.23-6.32-3.7
		c-2.84-2.13-5.63-4.37-8.13-6.87c-1.82-1.82-3.3-4.05-4.65-6.27c-1.14-1.88-1.31-4.81-2.87-5.88c-4.67-3.23-6.1-7.92-5.18-12.64
		c1.17-5.99,3.88-11.68,5.92-17.5C320.48,357.93,321.34,358.2,322.2,358.46z"/>
	<path class="st1" d="M445.09,321.71c-1.05,4.56-2.1,9.13-3.19,13.89c-2.65-3.35-5.84-6.1-7.2-9.56c-0.83-2.1,1.16-5.31,2.19-9.17
		c-4.65-1.42-10.65-3.25-17.68-5.4c7.88-4.51,8.76-4.48,13.01,0.48c2.79,3.27,6.05,4.46,10.21,3.21c1.26-0.38,2.61-0.59,3.92-0.63
		c5.27-0.19,6.35,1.47,4.77,6.55c-0.93,2.99-2.33,6.22-1.97,9.16c1.01,8.28-2.64,14.97-5.79,22.08
		c-3.98,8.99-12.09,12.2-20.21,14.73c-9.78,3.05-19.99,1.35-30,0.08c-0.74-0.09-1.42-0.65-2.12-0.99c0.03-0.47,0.06-0.94,0.09-1.41
		c2.88,0,5.77-0.16,8.64,0.03c12.4,0.81,24.14-1.05,34.78-7.92c5.2-3.36,8.32-7.92,9.11-14.14c0.87-6.89,1.95-13.75,2.95-20.62
		C446.09,321.96,445.59,321.84,445.09,321.71z"/>
	<path class="st3" d="M434.86,559c-6.3-8-12.6-16.01-19.53-24.8c5.03,0,9.23,0,13.44,0c0.12-0.19,0.23-0.39,0.35-0.58
		c-4.01-1.14-8.01-2.28-12.2-3.47c8.33-4.44,16.1-2.67,23.59,2.18c3.15,2.04,6.9,3.79,5.42,9.13c-1.22-0.77-2.26-1.43-4.38-2.78
		c2,2.92,3.32,4.85,4.64,6.77c-0.24,0.3-0.48,0.59-0.72,0.89c-2.44-1.55-4.87-3.1-7.31-4.65c-0.17,0.21-0.33,0.43-0.5,0.64
		c2.08,2.29,4.16,4.57,6.24,6.86c-0.29,0.33-0.57,0.65-0.86,0.98c-0.94-0.52-1.88-1.04-3.59-1.99c1.18,2.21,1.94,3.62,2.77,5.18
		c-1.24,1.1-2.39,2.12-3.79,3.37c-0.99-1.09-2.13-2.35-4.02-4.43c0.8,2.73,1.27,4.36,1.75,5.99
		C435.72,558.52,435.29,558.76,434.86,559z"/>
	<path class="st1" d="M386.15,333.55c3.31-2.86,6.08-5.26,9.04-7.82c1.33,2.08,2.76,4.34,4.69,7.37c-2.53,0.49-4.6,0.67-6.5,1.32
		c-1.42,0.48-2.63,1.55-3.93,2.36c0.93,1.25,1.63,3.21,2.84,3.61c4.82,1.58,9.74,3.64,14.55-0.53c1.23-1.07,3.37-1.16,5.11-1.58
		c3.74-0.92,5.48-3.26,4.48-6.98c-1.63-6.05-4.94-10.93-11.07-13.27c-4.18-1.6-7.71-1.65-10.9,2.75c-2.29,3.15-6.33,4.98-9.24,7.77
		c-1.06,1.01-1.65,3.16-1.46,4.66c0.35,2.72,1.45,5.34,1.26,8.39c-1.4-3.24-3.08-6.4-4.1-9.75c-0.95-3.12-0.42-5.84,3.59-6.89
		c1.26-0.33,2.64-1.98,3.09-3.32c1.27-3.78,2.08-7.71,3.19-12.07c12.13,3.4,23.29,6.58,28.19,19.06c2.65,6.75,1.65,8.93-4.97,12.03
		c-5.69,2.66-11.31,5.47-16.96,8.22c0.21,0.16,1.35,1.06,2.49,1.95C394.46,351.25,386.65,340.56,386.15,333.55z"/>
	<path class="st3" d="M379.97,551.81c-1.73-0.76-2.69-1.19-3.94-1.74c1.03-0.58,1.69-0.96,3.07-1.74c-1.56-0.19-2.49-0.16-3.31-0.43
		c-0.82-0.28-2.03-0.74-2.18-1.35c-0.18-0.72,0.34-2.02,0.98-2.47c4.47-3.09,9.06-6.03,13.13-8.7c2.98,1.7,5.46,3.12,8.32,4.75
		c-1.55,0.35-3.08,0.69-4.94,1.1c3.01,2.15,8.41-0.46,9.15,5.55c-1.78,0-3.29,0-4.8,0c-0.06,0.26-0.13,0.51-0.19,0.77
		c2.2,0.94,4.39,1.87,7.82,3.33c-1.96,1.43-3.28,2.39-4.45,3.24c5.81,4.92,5.81,4.92,0.72,12.27c-3.99-2.48-7.88-5.18-12.04-7.38
		c-4.1-2.17-8.47-3.83-12.91-6.58C375.9,552.25,377.38,552.09,379.97,551.81z"/>
	<path class="st3" d="M415.41,546.47c-1.91-3.49-3.83-6.98-5.7-10.39c9.33,0.82,17.58,21.63,11.53,32.06
		c-0.59-4.94-1.07-8.93-1.54-12.92c-0.3,0.05-0.61,0.09-0.91,0.14c-0.19,4.17-0.38,8.34-0.58,12.51c-0.56,0.06-1.13,0.12-1.69,0.18
		c-0.45-2.32-0.9-4.65-1.59-8.26c-1.27,6.17-4.06,7.76-7.36,5.55c-1.54-8.16-2.07-15.56-4.45-22.3c-2.53-7.15-9.82-9.52-16.47-12.56
		c0.06-0.13,0.42-1.21,0.59-1.18c3.87,0.66,7.81,1.16,11.53,2.33c2.01,0.63,3.79,2.29,5.43,3.75c2.54,2.26,5,4.63,7.24,7.18
		c1.14,1.3,1.72,3.08,2.56,4.64C414.47,546.96,414.94,546.72,415.41,546.47z"/>
	<path class="st3" d="M361.3,556.61c2.98,3.05,5.21,5.33,8.44,8.63c-1.08-2.93-1.67-4.52-2.6-7.05c10.88,0.78,14.65,9.67,20.96,15.1
		c-0.1,0.49-0.2,0.98-0.3,1.47c-1.96,0-3.91,0-6.12,0c0.04,0.33,0.2,1.62,0.37,3c-0.87,0-1.62,0-2.54,0c0,1.76,0,3.52,0,5.27
		c-0.38,0.15-0.75,0.3-1.13,0.45c-1.58-1.75-3.16-3.49-5.77-6.38c1.02,3.14,1.65,5.07,2.75,8.43c-2.87-1.54-4.59-2.46-6.08-3.27
		c-0.69,1.04-1.52,2.29-2.36,3.54c-0.92-1.02-2.28-1.9-2.7-3.1C361.46,574.83,357.19,567.09,361.3,556.61z"/>
	<path class="st2" d="M331.15,231.01c3.15-0.81,6.79-1.22,9.92-2.69c2.86-1.34,5.19-3.83,7.75-5.82c-0.27-0.39-0.55-0.78-0.82-1.18
		c-1.36,0.65-2.71,1.3-4.07,1.96c7.15-4.08,4.07-15.47,12.07-18.96c-1.66,9.09-3.59,17.51-4.58,26.04c-0.44,3.79-1,6.25-4.44,8.71
		c-3.15,2.25-5.05,6.39-7.17,9.89c-2.29,3.79-4.21,7.82-7.49,11.72c-0.39-4.59-0.94-9.18-1.12-13.78
		C331,241.95,331.15,236.99,331.15,231.01z"/>
	<path class="st1" d="M425.32,388.51c0.57-4.32,0.93-7.01,1.28-9.69c-0.29-0.08-0.58-0.16-0.87-0.24c-1.13,2.48-2.26,4.96-3.83,8.4
		c-0.9-2.64-1.48-4.34-2.48-7.26c-0.75,2.93-1.21,4.72-1.62,6.31c-7.86-4.65-15.71-9.3-23.56-13.94c15.83,1.8,31.08,0.85,45.04-8.65
		C435.37,372,434.9,382.02,425.32,388.51z"/>
	<path class="st2" d="M416.51,200.43c1.19,6.18,0.37,10.29-1.99,14.66c-6.54,12.1-16.65,20.46-28.77,27.5
		c2.41-4.98,4.45-10.19,7.31-14.9c4.21-6.94,8.69-13.78,13.7-20.15C408.99,204.68,412.8,203.05,416.51,200.43z"/>
	<path class="st2" d="M212.51,516.43c-9.29-10.04-15.23-21.29-16.04-34.64c-0.32-5.32,2.11-9.58,6.88-12.37
		c2.73-1.59,4.8-0.86,5.07,2.11c0.44,4.84,1.09,9.92,0.08,14.56c-1.23,5.71-0.54,10.42,1.78,15.75
		C212.17,506.2,211.84,511.53,212.51,516.43z"/>
	<path class="st4" d="M204,265.42c-10.58-6.27-20.48-11.62-29.75-17.9c-3.09-2.09-5.01-6.37-6.61-10.02
		c-1.17-2.68,0.8-4.56,3.78-3.92c2.21,0.48,4.54,1.3,6.33,2.62c6.94,5.1,13.81,10.31,20.45,15.79
		C203.26,256.16,203.1,256.36,204,265.42z"/>
	<path class="st3" d="M369.72,541.95c-0.68-2.71-1.37-5.41-2.13-8.42c-0.73,1.28-1.54,2.68-2.22,3.87c-1.54,0-2.93,0-4.83,0
		c-1.03-8.75,0.97-17.15,4.72-24.52c6.67,4.81,13.05,9.41,20.35,14.68c-4.47,4.9-9.12,9.99-13.77,15.08
		C371.13,542.41,370.43,542.18,369.72,541.95z"/>
	<path class="st2" d="M315.85,517.05c0-6.6-0.59-12.86,0.16-18.95c0.81-6.57,2.66-13.05,4.57-19.41c0.53-1.77,2.89-3,4.42-4.48
		c1.51,1.6,4.11,3.06,4.34,4.82C330.72,489.5,328.03,509.79,315.85,517.05z"/>
	<path class="st3" d="M349.69,582.43c-6.24-2.48-6.24-2.48-6.42-7.7c-1.04,0.87-1.87,1.55-3.44,2.85c-0.26-2.32-0.44-3.83-0.65-5.73
		c-0.85,0.6-1.64,1.16-2.82,1.99c0-2,0-3.67,0-5.61c-0.86,0.67-1.55,1.22-2.3,1.81c-1.6-6.58,6.79-13.14,18.52-14.31
		c-1.17,1.81-2.19,3.38-3.21,4.95c0.15,0.19,0.31,0.38,0.46,0.57c1.93-1.5,3.87-3.01,5.92-4.61
		C355.61,565.76,354.6,574.41,349.69,582.43z"/>
	<path d="M148.13,430.88c1.54-2.78,3.87-5.4,4.45-8.36c0.89-4.51,0.53-9.26,0.81-13.91c0.1-1.69,0.53-3.35,1.03-6.28
		c1.41,13.08,2.75,24.73,3.9,36.4c0.45,4.53,1.99,8.21,5.71,11.11c3.87,3.02,6.11,7.15,6.89,12.38
		c-5.95-4.59-11.84-8.55-16.92-13.36c-1.93-1.83-2.29-5.58-2.79-8.55c-0.33-1.97,0.36-4.11,0.59-6.18c-0.64-0.1-1.28-0.2-1.92-0.31
		c-0.53,3.62-1.06,7.24-1.57,10.67c-3.4-2.95-3.72-7.72-0.68-13.26C147.81,431.14,147.98,431.02,148.13,430.88z"/>
	<path class="st5" d="M506.77,446.37c-8.15-4.45-15.38-8.4-22.62-12.34c0.16-0.39,0.32-0.79,0.47-1.18c3.24,1.15,6.48,2.3,9.71,3.45
		c0.15-0.34,0.3-0.69,0.46-1.03c-3.68-1.7-7.35-3.41-12.13-5.62c3.35-0.25,5.51-0.41,7.67-0.57c0-0.43,0-0.85,0-1.28
		c-6.35,0-12.7,0-19.05,0c-0.02-0.69-0.05-1.38-0.07-2.07c4.23-0.2,8.46-0.41,12.69-0.61c0-0.25,0.01-0.5,0.01-0.75
		c-7.58,0-15.17,0-23.68,0c1.23-2.84,2.11-4.87,3.31-7.65c1.71,1.46,3.11,2.66,5.03,4.32c8.7-4.15,17.11,0.2,24.21,5.35
		C499.05,430.91,505.28,436.71,506.77,446.37z"/>
	<path class="st4" d="M200.75,250.41c-7.54-6.02-14.61-11.22-21.1-17.07c-2.96-2.67-4.99-6.48-6.96-10.04
		c-0.59-1.07,0.01-3.39,0.89-4.45c0.59-0.71,2.65-0.28,4.04-0.21c0.63,0.03,1.32,0.34,1.84,0.72
		C189.92,227.06,198.79,235.86,200.75,250.41z"/>
	<path class="st5" d="M507.49,459.02c-3.29-4.68-6.59-9.35-10.02-14.23c13.02,2.95,17.81,13.12,17.92,26.59
		c-12.51-5.23-22.76-16.96-24.98-29.87c5.48,6.05,10.96,12.1,16.44,18.15C507.07,459.45,507.28,459.24,507.49,459.02z"/>
	<path class="st5" d="M454.57,438.56c2.54-0.33,4.17-0.55,5.81-0.76c0.04-0.36,0.07-0.71,0.11-1.07c-3.37-0.58-6.73-1.16-10.53-1.82
		c3.11-2.75,12.52-2.6,15.03-0.35c6.28,5.61,8.3,13.07,9.21,21c0.51,4.47,0.9,8.96,0.43,13.63c-4.32-6.07-8.65-12.14-12.97-18.21
		c0.28-0.26,0.56-0.51,0.84-0.77c2.96,2.73,5.93,5.46,8.89,8.18c0.29-0.27,0.57-0.53,0.86-0.8c-4.79-4.82-9.58-9.64-14.36-14.46
		c0.13-0.25,0.26-0.49,0.39-0.74c3.16,1.05,6.33,2.09,9.49,3.14c0.17-0.39,0.35-0.79,0.52-1.18
		C464,442.53,459.69,440.72,454.57,438.56z"/>
	<path class="st1" d="M432.12,354.18c-8.82,7.27-19.64,6.24-30.1,7.29c1.69-1.32,3.38-2.63,5.99-4.66
		c-8.46-0.19-14.73,7.39-23.12,2.93c3.6-0.78,6.74-1.2,9.68-2.17c2.27-0.75,4.32-2.19,6.46-3.35c0.43-0.23,0.77-0.8,1.19-0.85
		C412.13,352.31,422.14,345.95,432.12,354.18z"/>
	<path class="st2" d="M313.45,251.76c-0.96-2.35-1.93-4.7-2.87-7.06c-0.35-0.89-0.41-2.4-0.98-2.61c-5.96-2.19-5.75-8.9-9.49-12.66
		c-0.45-0.45-0.79-1.09-1.01-1.7c-1.31-3.68,6.99-18.86,10.81-19.76c0.42-0.1,0.93,0.14,2.33,0.4c-4.37,6.38-4.8,12.74-0.31,18.92
		c-0.07,0.32-0.05,0.71-0.23,0.94c-5.2,6.51-5.09,6.43-0.14,13.62c1.86,2.7,3.04,5.86,4.53,8.82
		C315.22,251.03,314.33,251.39,313.45,251.76z"/>
	<path class="st1" d="M411.22,386.49c-6.04-1.71-12.07-3.46-18.12-5.13c-4.8-1.33-8.4-3.71-11.21-8.23
		c-1.98-3.19-5.81-5.54-9.29-7.41c-4.69-2.52-5.03-6.47-5.18-9.53c4.03,2.04,8.42,4.24,12.78,6.51c0.84,0.44,1.85,0.99,2.24,1.77
		c3.83,7.64,10.86,11.29,18.04,14.88c3.93,1.97,7.65,4.33,11.47,6.52C411.71,386.07,411.47,386.28,411.22,386.49z"/>
	<path class="st4" d="M222.09,277.31c4.68-1.5,9.29-3.37,14.07-4.39c6.26-1.34,10.92,1.32,13.83,7.05c1.83,3.62,0.99,5.32-3.12,5.46
		C237.95,285.75,230.14,282.06,222.09,277.31z"/>
	<path class="st3" d="M356.2,528.73c-4.4-5.25,0.86-9.12,1.14-13.95c-1.73,2.19-3.46,4.38-5.47,6.92c-0.62-1.35-1.18-2.56-1.63-3.54
		c-1.03,0.1-2.39,0.61-2.87,0.18c-0.65-0.6-1.12-2.09-0.84-2.91c1.45-4.19,3.18-8.29,5.03-12.98c1.74,1.41,2.91,2.36,4.05,3.28
		c5.91-4,5.91-4,8.7,0.69C361.5,514.17,358.94,521.2,356.2,528.73z"/>
	<path class="st4" d="M206.57,264.53c-2.96-13.29-5.91-26.59-8.95-40.25c5.49-0.31,7.71,2.52,8.46,5.94
		c1.17,5.29,1.81,10.75,2.12,16.17c0.35,6.04,0.08,12.11,0.08,18.17C207.71,264.55,207.14,264.54,206.57,264.53z"/>
	<path class="st5" d="M485.04,445.14c-2.68-4.15-5.35-8.3-8.28-12.83c8.93,3.58,11.33,11.31,14.32,20.78
		c-3.57-1.58-6.1-2.51-8.44-3.79c-2.51-1.37-4.84-3.08-7.47-4.79c-0.46-3-1.01-6.61-1.56-10.23c-0.72,0.46-1.44,0.93-2.16,1.39
		c-1.51-1.47-2.98-2.99-4.53-4.41c-2.06-1.89-4.18-3.7-6.72-5.95c5.32,2.24,10.76,2.89,14.1,8.07c2.83,4.41,6.33,8.39,9.54,12.56
		C484.24,445.69,484.64,445.42,485.04,445.14z"/>
	<path class="st5" d="M467.79,492.11c-4.99-7.35-9.12-13.38-13.17-19.48c-0.4-0.61-0.48-1.57-0.4-2.33
		c0.7-6.67,1.47-13.34,2.22-20.01c0.61,0.04,1.22,0.07,1.84,0.11c-0.5,5.62-1,11.24-1.5,16.86c0.44,0.08,0.89,0.16,1.33,0.24
		c0.65-2.85,1.29-5.69,1.94-8.54c0.46,0.01,0.91,0.02,1.37,0.03c0,6.45,0,12.89,0,19.34c0.54,0.05,1.08,0.1,1.62,0.15
		c0.37-1.07,0.74-2.14,1.11-3.21c0.29,0,0.57,0,0.86,0C465.86,480.42,466.71,485.57,467.79,492.11z"/>
	<path class="st2" d="M320.88,215.07c3.44,0,6.73,0,10.03,0c0.27,0.33,0.55,0.66,0.82,1c-7.82,4.07-8.35,11.07-9.44,18.46
		c-1.08,7.33-1.18,14.17,1.42,21.05c-0.48,0.13-0.96,0.27-1.44,0.4c-0.72-2.59-1.49-5.18-2.14-7.78c-0.7-2.8-0.54-6.19-2.12-8.31
		c-2.42-3.24-2.23-5.77-0.58-9.05c0.84-1.67,1.48-4.08,0.89-5.69C316.79,220.91,318.36,217.89,320.88,215.07z"/>
	<path class="st4" d="M170.12,270.92c5.5-4.87,21.9-1.26,31.42,6.93C191.55,280.64,176.46,277.31,170.12,270.92z"/>
	<path class="st0" d="M242.76,539.29c-5.53-2.65-3.71-8.06-5.76-11.94c-0.29,2.77-0.57,5.53-0.86,8.3c-0.6,0.08-1.2,0.16-1.8,0.25
		c-0.86-3.39-1.72-6.78-2.93-11.55c-0.28,3.64-0.47,6.07-0.72,9.38c-4.45-3.96-3.96-8.59-4.42-13.2c0.84-0.25,1.51-0.71,2.01-0.56
		c5.12,1.48,10.23,3,15.28,4.7c0.63,0.21,1.31,1.62,1.22,2.37C244.27,530.92,243.52,534.78,242.76,539.29z"/>
	<path class="st2" d="M383.74,242.82c-6.56-1.01-6.78-5.17-4.71-9.23c3.75-7.35,7.88-14.57,12.56-21.35
		c1.34-1.94,5.14-2.18,8.28-2.6c-7.48,9.48-16.67,17.67-17.06,30.87c1.23-2.64,2.47-5.27,3.7-7.91c0.2,0.07,0.4,0.15,0.61,0.22
		C386.01,236.12,384.89,239.4,383.74,242.82z"/>
	<path class="st0" d="M258.08,502.44c3.54,2.85,6.81,13.31,4.9,16.88c-0.62,1.17-2.69,2.37-3.94,2.22
		c-1.95-0.24-4.49-1.13-5.48-2.61C250.76,514.75,253.59,505.45,258.08,502.44z"/>
	<path class="st0" d="M265.56,512.05c0-1.32-0.4-2.82,0.08-3.93c0.97-2.21,2.43-4.2,3.69-6.29c1.75,1.8,3.92,3.37,5.12,5.48
		c0.9,1.58,0.56,3.86,0.78,5.83c0.54,4.85-1.82,7.61-6.52,7.12c-1.12-0.12-2.61-1.64-2.97-2.8c-0.51-1.66-0.13-3.59-0.13-5.41
		C265.59,512.05,265.58,512.05,265.56,512.05z"/>
	<path class="st4" d="M182.93,281.47c-7.2,5.07-11.4,14.66-21.94,14.7c-0.46-0.45-0.91-0.9-1.37-1.35c1.38-1.86,2.47-4.04,4.19-5.51
		c3.91-3.34,7.94-6.62,12.29-9.32c1.62-1,4.27-0.34,6.45-0.44C182.68,280.19,182.81,280.83,182.93,281.47z"/>
	<path class="st0" d="M239.77,510.47c1.34-2.46,2.38-5.19,4.16-7.28c0.84-0.98,3.7-1.55,4.59-0.88c1.26,0.93,1.94,3.13,2.13,4.87
		c0.24,2.26,0.05,4.67-0.53,6.86c-0.45,1.74-1.76,3.27-2.69,4.89c-2.2-1.33-4.59-2.45-6.51-4.12c-0.69-0.6-0.23-2.52-0.29-3.83
		C240.34,510.81,240.06,510.64,239.77,510.47z"/>
	<path class="st4" d="M248.18,255.41c0.03,7.46-12.17,16.04-26.83,19.47C229.76,268.06,237.08,259.76,248.18,255.41z"/>
	<path class="st4" d="M194.44,227.93c-5.74-5.07-10.32-10.98-12.23-18.59c-0.38-1.53,0.38-3.34,0.61-5.03
		c1.61,0.82,4.06,1.25,4.68,2.54c3.17,6.61,5.86,13.45,8.73,20.2C195.64,227.35,195.04,227.64,194.44,227.93z"/>
	<path class="st2" d="M362.25,240.21c-8.92,0.65-12.18,3.4-15.1,12.55c-1.44,4.51-2.8,8.99-9.12,10.55
		c1.62-2.69,3.01-4.77,4.15-6.97c1.21-2.33,2.17-4.78,2.42-7.74c-1.46,2.15-2.92,4.29-4.65,6.83
		C343.14,242.48,354.07,233.72,362.25,240.21z"/>
	<path class="st2" d="M397.37,247.04c6.45-8.63,13.31-17.79,19.03-25.43C413.71,241.71,410.17,243.02,397.37,247.04z"/>
	<path class="st0" d="M426.93,436.91c-1.71,1.38-4.96,4.01-9.34,7.55c-1.09-5.55-2.26-10.21-2.73-14.94
		c-0.11-1.08,2.11-2.64,3.56-3.44c0.36-0.2,2.04,1.61,2.85,2.7C423.23,431.4,425.03,434.15,426.93,436.91z"/>
	<path class="st2" d="M325.76,224.18c2.42-1.72,4.79-3.54,7.29-5.15c3.28-2.12,7.03-3.67,9.89-6.23c2.02-1.8,2.89-4.88,4.66-8.07
		c0.4,0.05,1.77,0.23,3.13,0.41c0.04,0.56,0.15,0.89,0.07,1.17C347.37,218.44,337.75,222.78,325.76,224.18z"/>
	<path class="st4" d="M150.52,291.71c0.95-8.34,5.79-11.36,23.63-14.92C166.17,282.77,160.1,289.35,150.52,291.71z"/>
	<path class="st0" d="M281,502.66c5.41,3.32,4.71,8.63,4.56,13.38c-0.03,1.09-3.39,2.41-5.39,2.88c-0.58,0.14-2.68-2.45-2.52-3.57
		C278.24,511.12,275.2,505.87,281,502.66z"/>
	<path class="st0" d="M288.6,516.67c-0.56-5.67-1.51-11.43,3.84-15.97c5.02,2.54,4.48,7.58,4.25,11.35
		c-0.13,2.1-4.29,3.96-6.63,5.92C289.57,517.54,289.08,517.1,288.6,516.67z"/>
	<path class="st4" d="M213.71,317.42c-3.96-9.78-1.54-19.01-1.4-28.71C217.04,296.69,218.03,311.57,213.71,317.42z"/>
	<path class="st0" d="M227.89,510.82c-5.34,0.69-6.37-2.49-6.96-5.51c-0.62-3.15-1.36-6.67,2.19-8.9c2.36-1.48,4.43-1.02,4.68,1.87
		C228.15,502.43,227.89,506.64,227.89,510.82z"/>
	<path class="st2" d="M359.56,258.13c-2.13-2.46-4.4-4.81-6.31-7.43c-0.54-0.73-0.5-2.77,0.08-3.26c1.79-1.53,3.89-2.8,6.06-3.71
		c0.5-0.21,2.55,1.41,2.56,2.21c0.07,4.07-0.3,8.15-0.51,12.23C360.81,258.15,360.19,258.14,359.56,258.13z"/>
	<path class="st0" d="M265,527.45c3.22-0.28,5.47-0.47,8.64-0.74c-0.49,3.81-0.75,7.34-1.49,10.76c-0.26,1.2-1.7,2.14-2.6,3.2
		c-1.12-1.08-2.9-2-3.22-3.28C265.54,534.31,265.43,531.04,265,527.45z"/>
	<path class="st4" d="M167.25,275.73c-4.58,0-9.19,0.28-13.73-0.16c-1.49-0.14-2.8-2.16-4.19-3.32c1.39-0.87,2.76-2.41,4.19-2.47
		c3.45-0.14,6.97,0.18,10.37,0.81c1.47,0.28,2.71,1.8,4.06,2.75C167.72,274.14,167.49,274.93,167.25,275.73z"/>
	<path class="st0" d="M235.91,500.19c3.06,3.75,3.26,6.33,1.07,14.99c-3.56,0.63-5.59-1.03-6.29-4.43
		C229.58,505.36,231.28,502.03,235.91,500.19z"/>
	<path class="st5" d="M469.9,488.77c-0.47-5.16-0.72-9.45-1.3-13.69c-0.54-3.98-1.42-7.9-2.2-12.14
		C474.85,469.44,475.38,473.21,469.9,488.77z"/>
	<path class="st2" d="M395.55,475.46c1.16-1.62,1.97-2.77,2.79-3.92c-0.17-0.44-0.35-0.89-0.52-1.33c-2.39,0.63-4.77,1.25-7.95,2.09
		c0.6-1.96,1.14-3.71,1.5-4.86c3.34-0.65,5.95-1.16,8.56-1.67c-0.02,0.32-0.05,0.64-0.07,0.96c2.43,0.13,4.88,0.16,7.29,0.44
		c1.04,0.12,2.09,0.66,2.96,1.26c0.28,0.19,0.15,1.67-0.04,1.73c-0.97,0.29-2.08,0.57-3.03,0.37c-3.67-0.78-6.86-1.77-6.82,4.19
		C400.23,478.47,397.73,476.96,395.55,475.46z"/>
	<path class="st4" d="M210.47,293.51c-1.08,6.33-2,12.69-3.36,18.96c-0.3,1.38-2.18,2.42-3.33,3.61c-0.52-1.73-1.86-3.7-1.42-5.14
		c1.86-6.1,4.25-12.03,6.45-18.03C209.36,293.11,209.92,293.31,210.47,293.51z"/>
	<path class="st4" d="M240.67,270.44c4.91-4.87,9.49-6.13,14.56-4.18c1.54,0.59,2.56,2.55,3.81,3.88c-1.62,0.84-3.28,2.47-4.84,2.38
		C250.02,272.28,245.87,271.3,240.67,270.44z"/>
	<path class="st0" d="M254.67,533.53c-1.57,2.49-2.92,4.63-4.27,6.78c-1.61-2.38-4.11-4.58-4.66-7.18c-1.1-5.21,1.75-8.16,5.27-6.09
		C252.68,528.02,253.24,530.85,254.67,533.53z"/>
	<path class="st2" d="M385.91,247.58c8.77-7.69,16.95-14.87,24.6-21.58C408.08,233.39,392.19,248.62,385.91,247.58z"/>
	<path class="st0" d="M254.98,527.24c3.29,0.56,5.53,0.94,8.67,1.47c-0.47,3.13-0.72,6.18-1.48,9.09c-0.26,1-1.82,2.33-2.75,2.3
		c-0.99-0.04-2.52-1.36-2.77-2.37C255.87,534.48,255.56,531.1,254.98,527.24z"/>
	<path class="st3" d="M422.12,524.64c-3.89,2.9-8.15,3.24-10.95-0.89c-1.5-2.22-0.91-5.85-0.11-9.17
		C414.75,517.94,418.44,521.29,422.12,524.64z"/>
	<path class="st0" d="M183.24,474.99c-5.43,2.95-9.25,0.45-13.37-2.67c4.68-0.33,8.82-0.62,13.85-0.97
		c2.54,6.57,5.42,14.01,8.3,21.45c-0.21,0.1-0.42,0.19-0.63,0.29C188.71,487.15,186.04,481.21,183.24,474.99z"/>
	<path class="st4" d="M249.2,262.88c4.46-6.87,11.29-9.94,17.01-7.58C261.79,260.77,256.37,263.3,249.2,262.88z"/>
	<path class="st2" d="M324.8,266.57c-9.91,1.66-16.07-4.31-20.72-12.94C311.1,258.02,318.12,262.4,324.8,266.57z"/>
	<path class="st1" d="M392.98,338.09c3.19-1.49,6.69-2.78,9.64-4.85c0.49-0.34-1.39-4.07-2.07-5.94c5.61,0.62,8.62,2.63,9.69,7.03
		C404.49,336.66,399.25,341.67,392.98,338.09z"/>
	<path class="st0" d="M222.62,530.36c-0.82-3.39-1.43-5.89-2.08-8.6c-0.83,0.65-1.38,1.08-2.33,1.82c-0.69-3.31-1.32-6.31-2.01-9.59
		C225.41,516.75,227.82,522.33,222.62,530.36z"/>
	<path class="st5" d="M453.78,454.09c-2.55-4.64-4.84-8.8-7.56-13.75c0.36-0.41,1.52-1.71,2.66-3
		C455.57,442.99,456.49,445.96,453.78,454.09z"/>
	<path class="st4" d="M180.59,264.48c-9.38,2.54-15.35,0.32-19.71-5.89c0.19-0.5,0.38-1,0.58-1.5
		C167.4,259.39,173.34,261.68,180.59,264.48z"/>
	<path class="st0" d="M179.57,491.91c-7.53-7.74-14.65-14.99-21.64-22.35c-0.51-0.54-0.17-1.88-0.28-3.79
		C167.72,472.72,172.46,482.93,179.57,491.91z"/>
	<path class="st0" d="M304.22,498.85c0.83,3.41,1.55,6.38,2.25,9.26c-2.43,1.86-4.55,3.48-7.17,5.49
		C298.84,507.97,297.13,502.67,304.22,498.85z"/>
	<path class="st4" d="M172.08,296.99c6.27-4.58,9.82-12.46,17.79-15.08C185.63,288.88,180.16,294.42,172.08,296.99z"/>
	<path class="st4" d="M227.37,302.07c7.98,3.91,9.72,7.36,6.22,11.86C227.84,310.77,225.13,305.84,227.37,302.07z"/>
	<path class="st2" d="M390.27,475.41c4.25,1.72,7.07,3.67,9.89,3.68c1.56,0,3.14-3.26,5.24-5.66c0.31,0.92,1.55,3.08,1.11,3.51
		c-2.96,2.87-6.28,5.38-9.48,8C394.88,481.91,392.73,478.88,390.27,475.41z"/>
	<path class="st4" d="M215.4,287.4c8.62,5.54,10.83,10.64,7.18,15.86C217.84,299.3,217.71,293.5,215.4,287.4z"/>
	<path class="st0" d="M274.93,525.98c2.59,0.18,4.22,0.3,6.9,0.48c-0.77,4.1-1.5,8-2.23,11.91c-0.65-0.05-1.3-0.09-1.96-0.14
		C274.29,534.92,276.16,530.42,274.93,525.98z"/>
	<path class="st3" d="M450.37,517.99c-4.88,1.16-8.03,1.9-12.25,2.9c2.28-3.76,4.12-6.8,6.63-10.95
		C446.6,512.61,448.25,514.96,450.37,517.99z"/>
	<path class="st2" d="M339.93,202.54c-6.52,0-13.04,0-20.88,0c4.25-1.78,7.59-4.23,10.99-4.31c3.53-0.08,7.11,2.13,10.67,3.34
		C340.45,201.9,340.19,202.22,339.93,202.54z"/>
	<path class="st2" d="M391.98,250.78c5.88-1.38,10.76-2.52,15.64-3.66C404.91,254.34,401.34,255.39,391.98,250.78z"/>
	<path class="st0" d="M289.1,523.57c-0.4,4.81-0.71,8.46-1.02,12.12c-0.69,0.1-1.38,0.2-2.06,0.3c-1.24-3-2.49-6.01-3.88-9.38
		C284.31,525.66,285.89,524.97,289.1,523.57z"/>
	<path class="st1" d="M411.3,327.81c-3.49-1.43-5.57-2.4-7.73-3.14c-2.08-0.71-4.24-1.17-7.31-1.99c1.29-1.04,2.53-2.9,3.86-2.96
		C405.09,319.51,408.28,322.47,411.3,327.81z"/>
	<path class="st4" d="M152.82,261.97c6.47-1.97,9.89,3.15,14.26,6.07c-0.19,0.47-0.37,0.94-0.56,1.41
		c-4.82-1.83-9.64-3.66-14.46-5.49C152.31,263.3,152.56,262.63,152.82,261.97z"/>
	<path class="st2" d="M318.79,214.27c-6.29,3.32-2.38,8.54-2.86,12.94c-0.6,0.07-1.2,0.14-1.81,0.21c-0.79-3.86-1.97-7.71-2.09-11.6
		c-0.03-0.97,3.35-2.04,5.17-3.06C317.73,213.26,318.26,213.76,318.79,214.27z"/>
	<path class="st4" d="M200.69,282.04c-3.83,3.21-7.23,6.07-11.43,9.59C190.44,284.29,195,280.53,200.69,282.04z"/>
	<path class="st2" d="M332.1,276.34c-0.63-2.9-1.25-5.8-1.88-8.7c1.73-0.28,3.47-0.56,6.29-1.02c-0.78,3.95-1.35,6.84-1.93,9.74
		C333.76,276.35,332.93,276.35,332.1,276.34z"/>
	<path class="st2" d="M378.13,217.79c1.02,0.56,2.79,1.53,4.56,2.5c-1.99,3.89-4.34,8.5-6.94,13.6
		C376.64,227.83,377.45,222.35,378.13,217.79z"/>
	<path class="st2" d="M372.65,234.9c2.66,5.66-1.41,7.68-5.7,9.94c-0.49-1.81-0.97-3.59-1.35-5.02
		C368.1,238.07,370.39,236.47,372.65,234.9z"/>
	<path class="st0" d="M353.41,500.23c5.07-6.78,8.85-6.52,12.69,0C362.07,500.23,358.05,500.23,353.41,500.23z"/>
	<path class="st0" d="M307.13,507.07c1.51-3.98,2.75-7.25,3.99-10.53C315.11,503.87,314.32,505.82,307.13,507.07z"/>
	<path class="st4" d="M227.46,295.73c4,2.08,8.82,3.13,10.65,7.93c-0.46,0.6-0.92,1.2-1.37,1.8c-3.56-2.62-7.13-5.23-10.69-7.85
		C226.52,296.99,226.99,296.36,227.46,295.73z"/>
	<path class="st2" d="M328.2,230.28c0.4,2.98,0.66,4.87,1.04,7.71c-5.29-4.81-4.84-7.91,0.5-10.22c3.23-1.39,6.52-2.61,9.79-3.91
		c0.19,0.43,0.39,0.87,0.58,1.3C336.09,226.89,332.07,228.62,328.2,230.28z"/>
	<path class="st0" d="M309.08,521.98c-2.3-6.94-1.99-7.78,5.18-12.37c-1.38,4.72-2.57,8.77-3.76,12.81
		C310.03,522.28,309.56,522.13,309.08,521.98z"/>
	<path class="st0" d="M295.44,521.74c-0.22,3.58-0.42,6.87-0.69,11.25C289.19,526.73,289.46,523.15,295.44,521.74z"/>
	<path class="st1" d="M370.04,348.03c4.45,4.04,8.07,7.34,11.8,10.72C374.48,357.79,371.81,355.54,370.04,348.03z"/>
	<path class="st0" d="M216.8,492.83c0.55,3.78,1.1,7.55,1.66,11.33c-0.59,0.09-1.18,0.18-1.77,0.28
		C216.96,500.52,210.61,497.69,216.8,492.83z"/>
	<path class="st4" d="M223.9,291.83c7.16-1.8,9.72-0.88,12.8,5.13C231.98,295.07,228.32,293.6,223.9,291.83z"/>
	<path class="st0" d="M299.57,528.41c-3.55-6.74-3.48-6.97,2.61-9.94C301.14,522.42,300.35,525.42,299.57,528.41z"/>
	<path class="st2" d="M345.36,203.51c-2.82,3.6-5.64,7.2-8.46,10.8c-0.62-0.49-1.24-0.97-1.86-1.46c3.04-3.4,6.08-6.81,9.12-10.21
		C344.55,202.93,344.96,203.22,345.36,203.51z"/>
	<path class="st4" d="M184.34,263.54c-6.62-2.87-11.99-5.21-18.04-7.83C170.89,254.7,175.82,256.9,184.34,263.54z"/>
	<path class="st3" d="M357.75,553.75c2.45-1.62,3.84-2.54,4.86-3.21c0.82,1.61,1.73,3.38,2.88,5.63
		C363.91,558.11,361.44,554.14,357.75,553.75z"/>
	<path class="st3" d="M402.47,531.5c3-2.55,5.22-6.85,10.36-4.02c-2.76,0.73-4.66,1.24-6.92,1.83c0.89,1.32,1.48,2.19,2.91,4.31
		C405.85,532.64,404.16,532.07,402.47,531.5z"/>
	<path class="st4" d="M220.39,307.84c1.2,4.01,2.08,6.93,3.06,10.21C218.63,316.92,218.35,316.02,220.39,307.84z"/>
	<path class="st4" d="M228.94,318.1c-5.11-0.38-3.05-5.84-4.32-8.99c1.92,2.56,3.84,5.12,5.77,7.68
		C229.91,317.23,229.42,317.66,228.94,318.1z"/>
	<path class="st0" d="M306.45,517.12c-0.27,2.42-0.55,4.85-0.82,7.27c-2.39-2.83-5.16-5.68-1.03-7.76
		C305.22,516.8,305.84,516.96,306.45,517.12z"/>
	<path class="st2" d="M336.65,278.94c0.87,3.26,1.74,6.53,2.61,9.79c-0.6,0.16-1.2,0.32-1.8,0.48c-1.08-3.25-2.17-6.49-3.25-9.74
		C335.02,279.3,335.83,279.12,336.65,278.94z"/>
	<path d="M286.46,455.01c-1.96,0.89-3.95,2.58-5.86,2.49c-3.47-0.16-7.08-0.95-10.24-2.36c-1.47-0.65-2.72-3.32-2.86-5.16
		c-0.64-8.44-0.87-16.91-1.22-25.38c-0.07-1.79-0.01-3.58-1.21-5.53c-0.58,4.33-1.34,8.64-1.7,12.98
		c-0.65,7.82-1.33,15.58-5.77,22.43c-3.57,5.52-5.81,5.53-9.31-0.12c-9.61-15.53-6.96-32.6,6.92-44.18
		c5.61-4.68,7.58-11.21,9.07-17.88c0.9-4.02,0.98-8.22,1.58-13.64c1.1,5.16,2.82,9.2,2.62,13.13c-0.37,7.17,2.93,12.86,7.05,17.57
		c9.03,10.32,12.53,22.04,11.72,35.37c-0.21,3.48-0.6,6.95-0.91,10.42C286.35,455.16,286.46,455.01,286.46,455.01z"/>
	<path d="M225.05,430.06c-4.11,4.32-8.15,5.9-13.48,5.39c-5.73-0.55-11.65,0.63-17.35-0.08c-17.64-2.19-36.01-20.8-33.87-40.99
		c0.23-2.15,0.84-4.26,1.6-6.29C162.01,422.62,185.37,439.87,225.05,430.06z"/>
	<path d="M240.86,556.89c1.82,0.94,3.65,1.88,5.47,2.82c-0.21,0.45-0.42,0.91-0.63,1.36c-4.31-2.05-8.59-4.19-12.95-6.13
		c-3.41-1.52-6.99-2.67-10.38-4.22c-1.9-0.87-4.18-1.85-5.23-3.46c-4.6-7.02-8.8-14.3-12.57-21.94c9.01,9.69,14,23.55,29.07,25.78
		c0,0.02-0.07-0.7-0.14-1.3c7.87,1.84,15.72,3.67,23.56,5.5c0.04,0.59,0.07,1.17,0.11,1.76c-2.65,0.23-5.36,0.88-7.95,0.58
		c-2.66-0.31-5.21-1.55-7.81-2.38C241.23,555.81,241.04,556.35,240.86,556.89z"/>
	<path d="M231.54,490.84c5.33,0.81,10.47,1.02,15.23,2.48c5.52,1.7,11.44-2.55,16.68,1.58c0.57,0.45,2.13-0.53,3.22-0.5
		c2.75,0.06,5.5,0.32,8.03,1.24c-3.47,0.63-6.94,1.25-11.53,2.08c-1.83-1.84-4.78-2.76-9.4-1.87c-5.85,1.12-12.21,0.11-18.25-0.7
		C233.9,494.93,232.64,492.1,231.54,490.84z"/>
	<path d="M216.51,457.84c-3.68-3.99-2.65-13.98-12.94-9.84c0.06-3.14-2.2-6.95,2.4-8.46c4.24-1.39,6.63,1.64,7.95,5.03
		c1.65,4.22,2.72,8.66,4.03,13.01C217.47,457.66,216.99,457.75,216.51,457.84z"/>
	<path d="M194.63,345.11c-11.67,1.59-20.67,7.3-27.49,17.98C165.75,352.05,181.39,342.61,194.63,345.11z"/>
	<path d="M270.6,554.52c4.4,0,8.94,0.06,13.47-0.04c1.4-0.03,3.05-0.08,4.15-0.8c5.78-3.75,11.42-7.71,18.11-10.84
		c-0.28,1.16-0.17,2.79-0.91,3.39c-2.66,2.18-5.36,4.92-8.5,5.79C288.33,554.4,279.82,559.71,270.6,554.52z"/>
	<path d="M211.56,463.35c6.05,2.64,8.79,7.78,8.84,14.87c0.02,3.55,0.92,7.1,1.51,11.24c-0.04-0.01-1.82,0.08-2.07-0.49
		c-1.17-2.66-2.81-5.57-2.63-8.27c0.4-5.73-1.05-10.46-4.84-14.62c-0.33-0.36-0.59-0.81-0.78-1.26
		C211.47,464.54,211.56,464.18,211.56,463.35z"/>
	<path d="M293.51,419.55c6.12,10.7,6.51,32.97,0.78,39.81C298.4,445.73,295.46,432.67,293.51,419.55z"/>
	<path d="M311.55,488.85c-4.63,2-9.25,4.03-13.9,5.97c-0.84,0.35-2.01,0.73-2.72,0.41c-2.81-1.26-4.54-0.64-6.94,1.51
		c-1.31,1.17-4.93-0.24-7.47-1.22c10.31-2.61,20.62-5.21,30.93-7.82C311.48,488.08,311.51,488.47,311.55,488.85z"/>
	<path d="M258.51,468.15c0.63,6.11,1.18,11.37,1.72,16.63c-0.45,0.07-0.89,0.15-1.34,0.22c-0.61-4.08-1.23-8.15-1.84-12.23
		c-0.49-0.1-0.97-0.21-1.46-0.31c-1.95,4.54-3.9,9.08-5.89,13.71C249.4,479.67,252.89,471.78,258.51,468.15z"/>
	<path d="M162.4,440.34c-1.05-4.97-1.94-8.73-2.57-12.53c-0.12-0.71,0.76-2.19,1.32-2.27c1.33-0.18,3.15-0.19,4.01,0.59
		c0.87,0.78,1.37,2.73,1.06,3.91C165.39,433.13,164.03,436.07,162.4,440.34z"/>
	<path d="M299.12,343c-5.08,5.09-11.04,11.06-16.44,16.48C282.32,353.13,290.3,345.06,299.12,343z"/>
	<path d="M297.47,459.98c6.55,3.88,13.36,15.28,13.62,22.22C306.52,474.75,302.32,467.9,297.47,459.98z"/>
	<path d="M238.42,454.2c-4.12,9.08-8.25,18.16-12.37,27.24C227.71,471.25,232.3,462.38,238.42,454.2z"/>
	<path d="M233.2,484.54c0.13-8.27,3.26-15.31,6.66-22.24c0.6,0.22,1.2,0.44,1.79,0.67C238.83,470.16,236.01,477.35,233.2,484.54z"/>
	<path d="M234.08,439.59c-3.82-4.56-3.51-11.8,1.37-20.41C234.94,426.78,234.51,433.08,234.08,439.59z"/>
	<path d="M279.75,469.67c5.34,2.28,8.7,9.23,8.84,18.58C285.52,481.81,282.71,475.89,279.75,469.67z"/>
	<path d="M329.64,445.97c-5.41-3.69-10.82-7.38-16.24-11.07c0.33-0.5,0.66-1,0.99-1.5c5.43,3.66,10.86,7.33,16.29,10.99
		C330.34,444.91,329.99,445.44,329.64,445.97z"/>
	<path d="M305.14,573.29c-1.03-5.61-2.05-11.21-3.08-16.82c0.65-0.11,1.3-0.21,1.95-0.32c1.06,5.6,2.13,11.19,3.19,16.79
		C306.52,573.05,305.83,573.17,305.14,573.29z"/>
	<path d="M277,492c-0.63-5.12-1.26-10.23-1.88-15.35c0.55-0.07,1.1-0.15,1.64-0.22c0.73,5.16,1.46,10.33,2.18,15.49
		C278.3,491.95,277.65,491.97,277,492z"/>
</g>
</svg>
